<svg width="60" height="60" viewBox="0 0 60 60" fill="none" xmlns="http://www.w3.org/2000/svg">
<g clip-path="url(#clip0_760_3494)">
<path d="M40.3125 29.0625H30.9375V19.6875C30.9375 19.4389 30.8387 19.2004 30.6629 19.0246C30.4871 18.8488 30.2486 18.75 30 18.75C29.7514 18.75 29.5129 18.8488 29.3371 19.0246C29.1613 19.2004 29.0625 19.4389 29.0625 19.6875V29.0625H19.6875C19.4389 29.0625 19.2004 29.1613 19.0246 29.3371C18.8488 29.5129 18.75 29.7514 18.75 30C18.75 30.2486 18.8488 30.4871 19.0246 30.6629C19.2004 30.8387 19.4389 30.9375 19.6875 30.9375H29.0625V40.3125C29.0625 40.5611 29.1613 40.7996 29.3371 40.9754C29.5129 41.1512 29.7514 41.25 30 41.25C30.2486 41.25 30.4871 41.1512 30.6629 40.9754C30.8387 40.7996 30.9375 40.5611 30.9375 40.3125V30.9375H40.3125C40.5611 30.9375 40.7996 30.8387 40.9754 30.6629C41.1512 30.4871 41.25 30.2486 41.25 30C41.25 29.7514 41.1512 29.5129 40.9754 29.3371C40.7996 29.1613 40.5611 29.0625 40.3125 29.0625Z" fill="url(#paint0_linear_760_3494)"/>
</g>
<rect x="0.5" y="0.5" width="59" height="59" rx="29.5" stroke="url(#paint1_linear_760_3494)"/>
<defs>
<linearGradient id="paint0_linear_760_3494" x1="30" y1="18.75" x2="30" y2="41.25" gradientUnits="userSpaceOnUse">
<stop stop-color="#0071D9"/>
<stop offset="1" stop-color="#5DAEFA"/>
</linearGradient>
<linearGradient id="paint1_linear_760_3494" x1="30" y1="0" x2="30" y2="60" gradientUnits="userSpaceOnUse">
<stop stop-color="#0F7CDE"/>
<stop offset="1" stop-color="#4EA5F5"/>
</linearGradient>
<clipPath id="clip0_760_3494">
<rect width="30" height="30" fill="white" transform="translate(15 15)"/>
</clipPath>
</defs>
</svg>
