<svg width="426" height="287" viewBox="0 0 426 287" fill="none" xmlns="http://www.w3.org/2000/svg">
<path d="M0 0H426V261.759C426 261.759 376.609 287 213 287C49.3913 287 0 261.759 0 261.759V0Z" fill="url(#paint0_linear_658_2684)"/>
<path opacity="0.1" d="M1.00018 107.84C1.00018 163.709 44.7254 209 98.6632 209C152.601 209 196.326 163.709 196.326 107.84C196.326 51.9712 152.601 6.68042 98.6632 6.68042C44.7254 6.68042 1.00018 51.9712 1.00018 107.84ZM176.794 107.84C176.794 152.535 141.813 188.768 98.6632 188.768C55.513 188.768 20.5328 152.535 20.5328 107.84C20.5328 63.145 55.513 26.9124 98.6632 26.9124C141.813 26.9124 176.794 63.145 176.794 107.84Z" fill="url(#paint1_linear_658_2684)"/>
<path opacity="0.1" d="M106.034 67.2809C106.034 100.75 132.228 127.881 164.54 127.881C196.851 127.881 223.045 100.75 223.045 67.2809C223.045 33.8122 196.851 6.68042 164.54 6.68042C132.228 6.68042 106.034 33.8122 106.034 67.2809ZM211.344 67.2809C211.344 94.0558 190.389 115.761 164.54 115.761C138.69 115.761 117.735 94.0558 117.735 67.2809C117.735 40.5059 138.69 18.8005 164.54 18.8005C190.389 18.8005 211.344 40.5059 211.344 67.2809Z" fill="url(#paint2_linear_658_2684)"/>
<path opacity="0.1" d="M247 40.5594C247 62.9597 229.469 81.1187 207.843 81.1187C186.217 81.1187 168.686 62.9597 168.686 40.5594C168.686 18.159 186.217 0 207.843 0C229.469 0 247 18.159 247 40.5594ZM176.517 40.5594C176.517 58.4796 190.542 73.0068 207.843 73.0068C225.144 73.0068 239.169 58.4796 239.169 40.5594C239.169 22.6391 225.144 8.11187 207.843 8.11187C190.542 8.11187 176.517 22.6391 176.517 40.5594Z" fill="url(#paint3_linear_658_2684)"/>
<defs>
<linearGradient id="paint0_linear_658_2684" x1="-10.8043" y1="-17.0712" x2="235.898" y2="400.214" gradientUnits="userSpaceOnUse">
<stop stop-color="#0071D9"/>
<stop offset="1" stop-color="#5DAEFA"/>
</linearGradient>
<linearGradient id="paint1_linear_658_2684" x1="171.91" y1="8.97949" x2="-45.2189" y2="218.603" gradientUnits="userSpaceOnUse">
<stop stop-color="white" stop-opacity="0"/>
<stop offset="1" stop-color="white" stop-opacity="0.7"/>
</linearGradient>
<linearGradient id="paint2_linear_658_2684" x1="208.419" y1="8.05769" x2="78.346" y2="133.634" gradientUnits="userSpaceOnUse">
<stop stop-color="white" stop-opacity="0"/>
<stop offset="1" stop-color="white" stop-opacity="0.7"/>
</linearGradient>
<linearGradient id="paint3_linear_658_2684" x1="178.475" y1="0.921797" x2="265.531" y2="84.9691" gradientUnits="userSpaceOnUse">
<stop stop-color="white" stop-opacity="0"/>
<stop offset="1" stop-color="white" stop-opacity="0.7"/>
</linearGradient>
</defs>
</svg>
