<svg width="40" height="40" viewBox="0 0 40 40" fill="none" xmlns="http://www.w3.org/2000/svg">
<rect width="40" height="40" rx="6.66667" fill="white" fill-opacity="0.06"/>
<g clip-path="url(#clip0_614_8345)">
<path d="M19.9999 31.6667C20.7735 31.6667 21.5153 31.3594 22.0623 30.8124C22.6093 30.2654 22.9166 29.5235 22.9166 28.75H17.0833C17.0833 29.5235 17.3905 30.2654 17.9375 30.8124C18.4845 31.3594 19.2264 31.6667 19.9999 31.6667Z" fill="white"/>
<path fill-rule="evenodd" clip-rule="evenodd" d="M19.9998 11.1304L18.8375 11.3652C17.5192 11.6338 16.3341 12.3497 15.4829 13.3917C14.6317 14.4338 14.1666 15.7379 14.1665 17.0833C14.1665 17.9992 13.9711 20.2873 13.4971 22.5404C13.2638 23.659 12.9488 24.8242 12.5303 25.8333H27.4694C27.0509 24.8242 26.7373 23.6604 26.5025 22.5404C26.0286 20.2873 25.8332 17.9992 25.8332 17.0833C25.8327 15.7381 25.3675 14.4343 24.5163 13.3926C23.6652 12.3509 22.4803 11.6352 21.1621 11.3667L19.9998 11.129V11.1304ZM29.0707 25.8333C29.3959 26.4852 29.7721 27.0015 30.2082 27.2917H9.7915C10.2275 27.0015 10.6038 26.4852 10.929 25.8333C12.2415 23.2083 12.7082 18.3667 12.7082 17.0833C12.7082 13.5542 15.2165 10.6083 18.5488 9.93605C18.5284 9.73327 18.5508 9.52848 18.6145 9.33488C18.6781 9.14128 18.7817 8.96318 18.9184 8.81205C19.0551 8.66092 19.222 8.54012 19.4082 8.45745C19.5945 8.37478 19.796 8.33206 19.9998 8.33206C20.2036 8.33206 20.4052 8.37478 20.5914 8.45745C20.7777 8.54012 20.9446 8.66092 21.0813 8.81205C21.218 8.96318 21.3215 9.14128 21.3852 9.33488C21.4489 9.52848 21.4712 9.73327 21.4509 9.93605C23.0992 10.2713 24.581 11.1659 25.6454 12.4684C26.7098 13.7709 27.2913 15.4013 27.2915 17.0833C27.2915 18.3667 27.7582 23.2083 29.0707 25.8333Z" fill="white"/>
<circle cx="25.8332" cy="14.1667" r="4.16667" fill="#FFAB7B"/>
</g>
<defs>
<clipPath id="clip0_614_8345">
<rect width="23.3333" height="23.3333" fill="white" transform="translate(8.33325 8.33334)"/>
</clipPath>
</defs>
</svg>
