<svg width="66" height="14" viewBox="0 0 66 14" fill="none" xmlns="http://www.w3.org/2000/svg">
<path fill-rule="evenodd" clip-rule="evenodd" d="M13.5761 2.61732C13.5 2.80109 13.5 3.03406 13.5 3.5V10.5C13.5 10.9659 13.5 11.1989 13.5761 11.3827C13.6776 11.6277 13.8723 11.8224 14.1173 11.9239C14.3011 12 14.5341 12 15 12C15.4659 12 15.6989 12 15.8827 11.9239C16.1277 11.8224 16.3224 11.6277 16.4239 11.3827C16.5 11.1989 16.5 10.9659 16.5 10.5V3.5C16.5 3.03406 16.5 2.80109 16.4239 2.61732C16.3224 2.37229 16.1277 2.17761 15.8827 2.07612C15.6989 2 15.4659 2 15 2C14.5341 2 14.3011 2 14.1173 2.07612C13.8723 2.17761 13.6776 2.37229 13.5761 2.61732ZM9 5.5C9 5.03406 9 4.80109 9.07612 4.61732C9.17761 4.37229 9.37229 4.17761 9.61732 4.07612C9.80109 4 10.0341 4 10.5 4C10.9659 4 11.1989 4 11.3827 4.07612C11.6277 4.17761 11.8224 4.37229 11.9239 4.61732C12 4.80109 12 5.03406 12 5.5V10.5C12 10.9659 12 11.1989 11.9239 11.3827C11.8224 11.6277 11.6277 11.8224 11.3827 11.9239C11.1989 12 10.9659 12 10.5 12C10.0341 12 9.80109 12 9.61732 11.9239C9.37229 11.8224 9.17761 11.6277 9.07612 11.3827C9 11.1989 9 10.9659 9 10.5V5.5ZM4.57612 6.61732C4.5 6.80109 4.5 7.03406 4.5 7.5V10.5C4.5 10.9659 4.5 11.1989 4.57612 11.3827C4.67761 11.6277 4.87229 11.8224 5.11732 11.9239C5.30109 12 5.53406 12 6 12C6.46594 12 6.69891 12 6.88268 11.9239C7.12771 11.8224 7.32239 11.6277 7.42388 11.3827C7.5 11.1989 7.5 10.9659 7.5 10.5V7.5C7.5 7.03406 7.5 6.80109 7.42388 6.61732C7.32239 6.37229 7.12771 6.17761 6.88268 6.07612C6.69891 6 6.46594 6 6 6C5.53406 6 5.30109 6 5.11732 6.07612C4.87229 6.17761 4.67761 6.37229 4.57612 6.61732ZM0.0761205 8.11732C0 8.30109 0 8.53406 0 9V10.5C0 10.9659 0 11.1989 0.0761205 11.3827C0.177614 11.6277 0.372288 11.8224 0.617317 11.9239C0.801088 12 1.03406 12 1.5 12C1.96594 12 2.19891 12 2.38268 11.9239C2.62771 11.8224 2.82239 11.6277 2.92388 11.3827C3 11.1989 3 10.9659 3 10.5V9C3 8.53406 3 8.30109 2.92388 8.11732C2.82239 7.87229 2.62771 7.67761 2.38268 7.57612C2.19891 7.5 1.96594 7.5 1.5 7.5C1.03406 7.5 0.801088 7.5 0.617317 7.57612C0.372288 7.67761 0.177614 7.87229 0.0761205 8.11732Z" fill="#222222"/>
<path fill-rule="evenodd" clip-rule="evenodd" d="M33.4769 5.99585C33.5904 6.10235 33.7654 6.10285 33.8759 5.99285L34.9399 4.92885C35.0544 4.81385 35.0549 4.62435 34.9369 4.51285C33.1279 2.80035 30.6864 1.74985 27.9989 1.74985C25.3114 1.74985 22.8699 2.80035 21.0609 4.51285C20.9429 4.62435 20.9434 4.81385 21.0579 4.92885L22.1219 5.99285C22.2324 6.10285 22.4074 6.10235 22.5209 5.99585C23.9554 4.65135 25.8824 3.82685 27.9989 3.82685C30.1154 3.82685 32.0424 4.65135 33.4769 5.99585ZM31.03 8.4463C31.1455 8.5493 31.318 8.5503 31.4275 8.4408L32.49 7.3783C32.6055 7.2628 32.606 7.0703 32.486 6.9598C31.305 5.8743 29.7295 5.2113 27.999 5.2113C26.2685 5.2113 24.693 5.8743 23.512 6.9598C23.392 7.0703 23.3925 7.2628 23.508 7.3783L24.5705 8.4408C24.68 8.5503 24.8525 8.5493 24.968 8.4463C25.774 7.7268 26.836 7.2883 27.999 7.2883C29.162 7.2883 30.224 7.7268 31.03 8.4463ZM30.0338 9.41095C30.1593 9.51595 30.1583 9.71145 30.0423 9.82745L28.2043 11.6654C28.0918 11.7779 27.9088 11.7779 27.7963 11.6654L25.9583 9.82745C25.8423 9.71145 25.8408 9.51595 25.9668 9.41095C26.5173 8.95045 27.2263 8.67295 28.0003 8.67295C28.7743 8.67295 29.4828 8.95045 30.0338 9.41095Z" fill="#222222"/>
<g clip-path="url(#clip0_607_3882)">
<g opacity="0.4">
<mask id="path-3-inside-1_607_3882" fill="white">
<path fill-rule="evenodd" clip-rule="evenodd" d="M44.1773 2H57.7773C58.7039 2 59.3387 2.00078 59.8305 2.04096C60.3106 2.08018 60.5656 2.15192 60.7488 2.24524C61.1721 2.46095 61.5163 2.80516 61.7321 3.22852C61.8254 3.41166 61.8971 3.66673 61.9363 4.14684C61.9765 4.63862 61.9773 5.27341 61.9773 6.2V7.8C61.9773 8.72659 61.9765 9.36138 61.9363 9.85316C61.8971 10.3333 61.8254 10.5883 61.7321 10.7715C61.5163 11.1948 61.1721 11.539 60.7488 11.7548C60.5656 11.8481 60.3106 11.9198 59.8305 11.959C59.3387 11.9992 58.7039 12 57.7773 12H44.1773C43.2507 12 42.6159 11.9992 42.1241 11.959C41.644 11.9198 41.389 11.8481 41.2058 11.7548C40.7825 11.539 40.4382 11.1948 40.2225 10.7715C40.1292 10.5883 40.0575 10.3333 40.0183 9.85316C39.9781 9.36138 39.9773 8.72659 39.9773 7.8V6.2C39.9773 5.27341 39.9781 4.63862 40.0183 4.14684C40.0575 3.66673 40.1292 3.41166 40.2225 3.22852C40.4382 2.80516 40.7825 2.46095 41.2058 2.24524C41.389 2.15192 41.644 2.08018 42.1241 2.04096C42.6159 2.00078 43.2507 2 44.1773 2ZM38.9773 6.2C38.9773 4.37983 38.9773 3.46974 39.3315 2.77453C39.6431 2.163 40.1403 1.66582 40.7518 1.35423C41.447 1 42.3571 1 44.1773 1H57.7773C59.5975 1 60.5076 1 61.2028 1.35423C61.8143 1.66582 62.3115 2.163 62.6231 2.77453C62.9773 3.46974 62.9773 4.37983 62.9773 6.2V7.8C62.9773 9.62017 62.9773 10.5303 62.6231 11.2255C62.3115 11.837 61.8143 12.3342 61.2028 12.6458C60.5076 13 59.5975 13 57.7773 13H44.1773C42.3571 13 41.447 13 40.7518 12.6458C40.1403 12.3342 39.6431 11.837 39.3315 11.2255C38.9773 10.5303 38.9773 9.62017 38.9773 7.8V6.2ZM65.4773 7C65.4773 6.06808 64.8399 5.28503 63.9773 5.06301V8.93699C64.8399 8.71497 65.4773 7.93192 65.4773 7Z"/>
</mask>
<path d="M59.8305 2.04096L59.749 3.03764L59.8305 2.04096ZM60.7488 2.24524L60.2948 3.13624L60.2948 3.13624L60.7488 2.24524ZM61.7321 3.22852L62.6231 2.77453L62.6231 2.77453L61.7321 3.22852ZM61.9363 4.14684L60.9397 4.22827V4.22827L61.9363 4.14684ZM61.9363 9.85316L60.9397 9.77173V9.77173L61.9363 9.85316ZM61.7321 10.7715L62.6231 11.2255L62.6231 11.2255L61.7321 10.7715ZM60.7488 11.7548L60.2948 10.8638L60.2948 10.8638L60.7488 11.7548ZM59.8305 11.959L59.9119 12.9557L59.8305 11.959ZM42.1241 11.959L42.0427 12.9557L42.0427 12.9557L42.1241 11.959ZM41.2058 11.7548L41.6598 10.8638L41.6598 10.8638L41.2058 11.7548ZM40.2225 10.7715L39.3315 11.2255L39.3315 11.2255L40.2225 10.7715ZM40.0183 9.85316L41.0149 9.77173V9.77173L40.0183 9.85316ZM40.0183 4.14684L41.0149 4.22827L40.0183 4.14684ZM40.2225 3.22852L41.1135 3.68251L41.1135 3.68251L40.2225 3.22852ZM41.2058 2.24524L41.6598 3.13624L41.6598 3.13624L41.2058 2.24524ZM42.1241 2.04096L42.2056 3.03764H42.2056L42.1241 2.04096ZM39.3315 2.77453L40.2225 3.22852L39.3315 2.77453ZM40.7518 1.35423L41.2058 2.24524L40.7518 1.35423ZM61.2028 1.35423L61.6568 0.463222V0.463222L61.2028 1.35423ZM62.6231 2.77453L61.7321 3.22852V3.22852L62.6231 2.77453ZM62.6231 11.2255L61.7321 10.7715L62.6231 11.2255ZM61.2028 12.6458L60.7488 11.7548L61.2028 12.6458ZM40.7518 12.6458L41.2058 11.7548H41.2058L40.7518 12.6458ZM39.3315 11.2255L38.4405 11.6795L38.4405 11.6795L39.3315 11.2255ZM63.9773 5.06301L64.2266 4.09457L62.9773 3.77303V5.06301H63.9773ZM63.9773 8.93699H62.9773V10.227L64.2266 9.90543L63.9773 8.93699ZM57.7773 1H44.1773V3H57.7773V1ZM59.9119 1.04428C59.3698 0.999992 58.687 1 57.7773 1V3C58.7208 3 59.3075 3.00156 59.749 3.03764L59.9119 1.04428ZM61.2028 1.35423C60.8549 1.17699 60.4534 1.08852 59.9119 1.04428L59.749 3.03764C60.1677 3.07184 60.2764 3.12685 60.2948 3.13624L61.2028 1.35423ZM62.6231 2.77453C62.3115 2.163 61.8143 1.66582 61.2028 1.35423L60.2948 3.13624C60.53 3.25608 60.7212 3.44731 60.8411 3.68251L62.6231 2.77453ZM62.933 4.06541C62.8888 3.52388 62.8003 3.12237 62.6231 2.77453L60.8411 3.68251C60.8504 3.70095 60.9055 3.80959 60.9397 4.22827L62.933 4.06541ZM62.9773 6.2C62.9773 5.29033 62.9773 4.60745 62.933 4.06541L60.9397 4.22827C60.9757 4.66978 60.9773 5.2565 60.9773 6.2H62.9773ZM62.9773 7.8V6.2H60.9773V7.8H62.9773ZM62.933 9.93459C62.9773 9.39255 62.9773 8.70967 62.9773 7.8H60.9773C60.9773 8.7435 60.9757 9.33022 60.9397 9.77173L62.933 9.93459ZM62.6231 11.2255C62.8003 10.8776 62.8888 10.4761 62.933 9.93459L60.9397 9.77173C60.9055 10.1904 60.8504 10.2991 60.8411 10.3175L62.6231 11.2255ZM61.2028 12.6458C61.8143 12.3342 62.3115 11.837 62.6231 11.2255L60.8411 10.3175C60.7212 10.5527 60.53 10.7439 60.2948 10.8638L61.2028 12.6458ZM59.9119 12.9557C60.4534 12.9115 60.8549 12.823 61.2028 12.6458L60.2948 10.8638C60.2764 10.8732 60.1677 10.9282 59.749 10.9624L59.9119 12.9557ZM57.7773 13C58.687 13 59.3698 13 59.9119 12.9557L59.749 10.9624C59.3075 10.9984 58.7208 11 57.7773 11V13ZM44.1773 13H57.7773V11H44.1773V13ZM42.0427 12.9557C42.5847 13 43.2676 13 44.1773 13V11C43.2338 11 42.6471 10.9984 42.2056 10.9624L42.0427 12.9557ZM40.7518 12.6458C41.0997 12.823 41.5012 12.9115 42.0427 12.9557L42.2056 10.9624C41.7869 10.9282 41.6782 10.8732 41.6598 10.8638L40.7518 12.6458ZM39.3315 11.2255C39.6431 11.837 40.1403 12.3342 40.7518 12.6458L41.6598 10.8638C41.4246 10.7439 41.2334 10.5527 41.1135 10.3175L39.3315 11.2255ZM39.0216 9.93459C39.0658 10.4761 39.1543 10.8776 39.3315 11.2255L41.1135 10.3175C41.1041 10.2991 41.0491 10.1904 41.0149 9.77173L39.0216 9.93459ZM38.9773 7.8C38.9773 8.70967 38.9773 9.39255 39.0216 9.93459L41.0149 9.77173C40.9789 9.33022 40.9773 8.7435 40.9773 7.8H38.9773ZM38.9773 6.2V7.8H40.9773V6.2H38.9773ZM39.0216 4.06541C38.9773 4.60745 38.9773 5.29033 38.9773 6.2H40.9773C40.9773 5.2565 40.9789 4.66978 41.0149 4.22827L39.0216 4.06541ZM39.3315 2.77453C39.1543 3.12237 39.0658 3.52388 39.0216 4.06541L41.0149 4.22827C41.0491 3.80959 41.1041 3.70095 41.1135 3.68251L39.3315 2.77453ZM40.7518 1.35423C40.1403 1.66582 39.6431 2.163 39.3315 2.77453L41.1135 3.68251C41.2334 3.44731 41.4246 3.25608 41.6598 3.13624L40.7518 1.35423ZM42.0427 1.04428C41.5012 1.08852 41.0997 1.17699 40.7518 1.35423L41.6598 3.13624C41.6782 3.12685 41.7869 3.07184 42.2056 3.03764L42.0427 1.04428ZM44.1773 1C43.2676 1 42.5847 0.999992 42.0427 1.04428L42.2056 3.03764C42.6471 3.00156 43.2338 3 44.1773 3V1ZM38.4405 2.32054C38.1796 2.83261 38.0742 3.38019 38.0249 3.98397C37.9765 4.57609 37.9773 5.30642 37.9773 6.2H39.9773C39.9773 5.27341 39.9781 4.63862 40.0183 4.14684C40.0575 3.66673 40.1292 3.41166 40.2225 3.22852L38.4405 2.32054ZM40.2978 0.463222C39.4981 0.870684 38.848 1.52085 38.4405 2.32054L40.2225 3.22852C40.4382 2.80516 40.7825 2.46095 41.2058 2.24524L40.2978 0.463222ZM44.1773 0C43.2837 0 42.5534 -0.000777721 41.9613 0.0475997C41.3575 0.0969309 40.8099 0.202307 40.2978 0.463222L41.2058 2.24524C41.389 2.15192 41.644 2.08018 42.1241 2.04096C42.6159 2.00078 43.2507 2 44.1773 2V0ZM57.7773 0H44.1773V2H57.7773V0ZM61.6568 0.463222C61.1447 0.202307 60.5971 0.0969309 59.9933 0.0475997C59.4012 -0.000777721 58.6709 0 57.7773 0V2C58.7039 2 59.3387 2.00078 59.8305 2.04096C60.3106 2.08018 60.5656 2.15192 60.7488 2.24524L61.6568 0.463222ZM63.5141 2.32054C63.1066 1.52085 62.4564 0.870684 61.6568 0.463222L60.7488 2.24524C61.1721 2.46095 61.5163 2.80516 61.7321 3.22852L63.5141 2.32054ZM63.9773 6.2C63.9773 5.30642 63.9781 4.57609 63.9297 3.98397C63.8804 3.38019 63.775 2.83261 63.5141 2.32054L61.7321 3.22852C61.8254 3.41166 61.8971 3.66673 61.9363 4.14684C61.9765 4.63862 61.9773 5.27341 61.9773 6.2H63.9773ZM63.9773 7.8V6.2H61.9773V7.8H63.9773ZM63.5141 11.6795C63.775 11.1674 63.8804 10.6198 63.9297 10.016C63.9781 9.42391 63.9773 8.69358 63.9773 7.8H61.9773C61.9773 8.72659 61.9765 9.36138 61.9363 9.85316C61.8971 10.3333 61.8254 10.5883 61.7321 10.7715L63.5141 11.6795ZM61.6568 13.5368C62.4564 13.1293 63.1066 12.4791 63.5141 11.6795L61.7321 10.7715C61.5163 11.1948 61.1721 11.539 60.7488 11.7548L61.6568 13.5368ZM57.7773 14C58.6709 14 59.4012 14.0008 59.9933 13.9524C60.5971 13.9031 61.1447 13.7977 61.6568 13.5368L60.7488 11.7548C60.5656 11.8481 60.3106 11.9198 59.8305 11.959C59.3387 11.9992 58.7039 12 57.7773 12V14ZM44.1773 14H57.7773V12H44.1773V14ZM40.2978 13.5368C40.8099 13.7977 41.3575 13.9031 41.9613 13.9524C42.5534 14.0008 43.2837 14 44.1773 14V12C43.2507 12 42.6159 11.9992 42.1241 11.959C41.644 11.9198 41.389 11.8481 41.2058 11.7548L40.2978 13.5368ZM38.4405 11.6795C38.848 12.4791 39.4981 13.1293 40.2978 13.5368L41.2058 11.7548C40.7825 11.539 40.4382 11.1948 40.2225 10.7715L38.4405 11.6795ZM37.9773 7.8C37.9773 8.69358 37.9765 9.42391 38.0249 10.016C38.0742 10.6198 38.1796 11.1674 38.4405 11.6795L40.2225 10.7715C40.1292 10.5883 40.0575 10.3333 40.0183 9.85316C39.9781 9.36138 39.9773 8.72659 39.9773 7.8H37.9773ZM37.9773 6.2V7.8H39.9773V6.2H37.9773ZM63.728 6.03145C64.1596 6.14251 64.4773 6.53541 64.4773 7H66.4773C66.4773 5.60075 65.5203 4.42755 64.2266 4.09457L63.728 6.03145ZM64.9773 8.93699V5.06301H62.9773V8.93699H64.9773ZM64.4773 7C64.4773 7.46459 64.1596 7.85749 63.728 7.96855L64.2266 9.90543C65.5203 9.57245 66.4773 8.39925 66.4773 7H64.4773Z" fill="#222222" mask="url(#path-3-inside-1_607_3882)"/>
</g>
<rect x="40.9773" y="3" width="20" height="8" rx="1.5" fill="#222222"/>
</g>
<defs>
<clipPath id="clip0_607_3882">
<rect width="26.5" height="12" fill="white" transform="translate(38.9773 1)"/>
</clipPath>
</defs>
</svg>
