<svg width="28" height="28" viewBox="0 0 28 28" fill="none" xmlns="http://www.w3.org/2000/svg">
<path d="M9.67167 15.505C9.56232 15.6135 9.47552 15.7425 9.41629 15.8847C9.35706 16.0268 9.32657 16.1793 9.32657 16.3333C9.32657 16.4874 9.35706 16.6399 9.41629 16.782C9.47552 16.9242 9.56232 17.0532 9.67167 17.1617L13.1717 20.6617C13.2801 20.771 13.4092 20.8578 13.5513 20.9171C13.6935 20.9763 13.846 21.0068 14 21.0068C14.154 21.0068 14.3065 20.9763 14.4487 20.9171C14.5908 20.8578 14.7199 20.771 14.8283 20.6617L18.3283 17.1617C18.548 16.942 18.6714 16.644 18.6714 16.3333C18.6714 16.0227 18.548 15.7247 18.3283 15.505C18.1086 15.2853 17.8107 15.1619 17.5 15.1619C17.1893 15.1619 16.8914 15.2853 16.6717 15.505L15.1667 17.0217V3.50001C15.1667 3.19059 15.0437 2.89384 14.825 2.67505C14.6062 2.45626 14.3094 2.33334 14 2.33334C13.6906 2.33334 13.3938 2.45626 13.175 2.67505C12.9562 2.89384 12.8333 3.19059 12.8333 3.50001V17.0217L11.3283 15.505C11.2199 15.3957 11.0908 15.3089 10.9487 15.2496C10.8065 15.1904 10.654 15.1599 10.5 15.1599C10.346 15.1599 10.1935 15.1904 10.0513 15.2496C9.90916 15.3089 9.78012 15.3957 9.67167 15.505ZM21 10.5H18.6667C18.3572 10.5 18.0605 10.6229 17.8417 10.8417C17.6229 11.0605 17.5 11.3573 17.5 11.6667C17.5 11.9761 17.6229 12.2728 17.8417 12.4916C18.0605 12.7104 18.3572 12.8333 18.6667 12.8333H21C21.3094 12.8333 21.6062 12.9563 21.825 13.1751C22.0438 13.3938 22.1667 13.6906 22.1667 14V22.1667C22.1667 22.4761 22.0438 22.7728 21.825 22.9916C21.6062 23.2104 21.3094 23.3333 21 23.3333H7C6.69058 23.3333 6.39383 23.2104 6.17504 22.9916C5.95625 22.7728 5.83333 22.4761 5.83333 22.1667V14C5.83333 13.6906 5.95625 13.3938 6.17504 13.1751C6.39383 12.9563 6.69058 12.8333 7 12.8333H9.33333C9.64275 12.8333 9.9395 12.7104 10.1583 12.4916C10.3771 12.2728 10.5 11.9761 10.5 11.6667C10.5 11.3573 10.3771 11.0605 10.1583 10.8417C9.9395 10.6229 9.64275 10.5 9.33333 10.5H7C6.07174 10.5 5.1815 10.8688 4.52513 11.5251C3.86875 12.1815 3.5 13.0718 3.5 14V22.1667C3.5 23.0949 3.86875 23.9852 4.52513 24.6416C5.1815 25.2979 6.07174 25.6667 7 25.6667H21C21.9283 25.6667 22.8185 25.2979 23.4749 24.6416C24.1313 23.9852 24.5 23.0949 24.5 22.1667V14C24.5 13.0718 24.1313 12.1815 23.4749 11.5251C22.8185 10.8688 21.9283 10.5 21 10.5Z" fill="black"/>
</svg>
