<svg width="66" height="14" viewBox="0 0 66 14" fill="none" xmlns="http://www.w3.org/2000/svg">
<path fill-rule="evenodd" clip-rule="evenodd" d="M13.5761 2.61732C13.5 2.80109 13.5 3.03406 13.5 3.5V10.5C13.5 10.9659 13.5 11.1989 13.5761 11.3827C13.6776 11.6277 13.8723 11.8224 14.1173 11.9239C14.3011 12 14.5341 12 15 12C15.4659 12 15.6989 12 15.8827 11.9239C16.1277 11.8224 16.3224 11.6277 16.4239 11.3827C16.5 11.1989 16.5 10.9659 16.5 10.5V3.5C16.5 3.03406 16.5 2.80109 16.4239 2.61732C16.3224 2.37229 16.1277 2.17761 15.8827 2.07612C15.6989 2 15.4659 2 15 2C14.5341 2 14.3011 2 14.1173 2.07612C13.8723 2.17761 13.6776 2.37229 13.5761 2.61732ZM9 5.5C9 5.03406 9 4.80109 9.07612 4.61732C9.17761 4.37229 9.37229 4.17761 9.61732 4.07612C9.80109 4 10.0341 4 10.5 4C10.9659 4 11.1989 4 11.3827 4.07612C11.6277 4.17761 11.8224 4.37229 11.9239 4.61732C12 4.80109 12 5.03406 12 5.5V10.5C12 10.9659 12 11.1989 11.9239 11.3827C11.8224 11.6277 11.6277 11.8224 11.3827 11.9239C11.1989 12 10.9659 12 10.5 12C10.0341 12 9.80109 12 9.61732 11.9239C9.37229 11.8224 9.17761 11.6277 9.07612 11.3827C9 11.1989 9 10.9659 9 10.5V5.5ZM4.57612 6.61732C4.5 6.80109 4.5 7.03406 4.5 7.5V10.5C4.5 10.9659 4.5 11.1989 4.57612 11.3827C4.67761 11.6277 4.87229 11.8224 5.11732 11.9239C5.30109 12 5.53406 12 6 12C6.46594 12 6.69891 12 6.88268 11.9239C7.12771 11.8224 7.32239 11.6277 7.42388 11.3827C7.5 11.1989 7.5 10.9659 7.5 10.5V7.5C7.5 7.03406 7.5 6.80109 7.42388 6.61732C7.32239 6.37229 7.12771 6.17761 6.88268 6.07612C6.69891 6 6.46594 6 6 6C5.53406 6 5.30109 6 5.11732 6.07612C4.87229 6.17761 4.67761 6.37229 4.57612 6.61732ZM0.0761205 8.11732C0 8.30109 0 8.53406 0 9V10.5C0 10.9659 0 11.1989 0.0761205 11.3827C0.177614 11.6277 0.372288 11.8224 0.617317 11.9239C0.801088 12 1.03406 12 1.5 12C1.96594 12 2.19891 12 2.38268 11.9239C2.62771 11.8224 2.82239 11.6277 2.92388 11.3827C3 11.1989 3 10.9659 3 10.5V9C3 8.53406 3 8.30109 2.92388 8.11732C2.82239 7.87229 2.62771 7.67761 2.38268 7.57612C2.19891 7.5 1.96594 7.5 1.5 7.5C1.03406 7.5 0.801088 7.5 0.617317 7.57612C0.372288 7.67761 0.177614 7.87229 0.0761205 8.11732Z" fill="white"/>
<path fill-rule="evenodd" clip-rule="evenodd" d="M33.4769 5.99585C33.5904 6.10235 33.7654 6.10285 33.8759 5.99285L34.9399 4.92885C35.0544 4.81385 35.0549 4.62435 34.9369 4.51285C33.1279 2.80035 30.6864 1.74985 27.9989 1.74985C25.3114 1.74985 22.8699 2.80035 21.0609 4.51285C20.9429 4.62435 20.9434 4.81385 21.0579 4.92885L22.1219 5.99285C22.2324 6.10285 22.4074 6.10235 22.5209 5.99585C23.9554 4.65135 25.8824 3.82685 27.9989 3.82685C30.1154 3.82685 32.0424 4.65135 33.4769 5.99585ZM31.03 8.4463C31.1455 8.5493 31.318 8.5503 31.4275 8.4408L32.49 7.3783C32.6055 7.2628 32.606 7.0703 32.486 6.9598C31.305 5.8743 29.7295 5.2113 27.999 5.2113C26.2685 5.2113 24.693 5.8743 23.512 6.9598C23.392 7.0703 23.3925 7.2628 23.508 7.3783L24.5705 8.4408C24.68 8.5503 24.8525 8.5493 24.968 8.4463C25.774 7.7268 26.836 7.2883 27.999 7.2883C29.162 7.2883 30.224 7.7268 31.03 8.4463ZM30.0338 9.41095C30.1593 9.51595 30.1583 9.71145 30.0423 9.82745L28.2043 11.6654C28.0918 11.7779 27.9088 11.7779 27.7963 11.6654L25.9583 9.82745C25.8423 9.71145 25.8408 9.51595 25.9668 9.41095C26.5173 8.95045 27.2263 8.67295 28.0003 8.67295C28.7743 8.67295 29.4828 8.95045 30.0338 9.41095Z" fill="white"/>
<g clip-path="url(#clip0_607_3779)">
<g opacity="0.4">
<mask id="path-3-inside-1_607_3779" fill="white">
<path fill-rule="evenodd" clip-rule="evenodd" d="M44.1771 2H57.7771C58.7036 2 59.3384 2.00078 59.8302 2.04096C60.3103 2.08018 60.5654 2.15192 60.7485 2.24524C61.1719 2.46095 61.5161 2.80516 61.7318 3.22852C61.8251 3.41166 61.8969 3.66673 61.9361 4.14684C61.9763 4.63862 61.9771 5.27341 61.9771 6.2V7.8C61.9771 8.72659 61.9763 9.36138 61.9361 9.85316C61.8969 10.3333 61.8251 10.5883 61.7318 10.7715C61.5161 11.1948 61.1719 11.539 60.7485 11.7548C60.5654 11.8481 60.3103 11.9198 59.8302 11.959C59.3384 11.9992 58.7036 12 57.7771 12H44.1771C43.2505 12 42.6157 11.9992 42.1239 11.959C41.6438 11.9198 41.3887 11.8481 41.2056 11.7548C40.7822 11.539 40.438 11.1948 40.2223 10.7715C40.129 10.5883 40.0572 10.3333 40.018 9.85316C39.9778 9.36138 39.9771 8.72659 39.9771 7.8V6.2C39.9771 5.27341 39.9778 4.63862 40.018 4.14684C40.0572 3.66673 40.129 3.41166 40.2223 3.22852C40.438 2.80516 40.7822 2.46095 41.2056 2.24524C41.3887 2.15192 41.6438 2.08018 42.1239 2.04096C42.6157 2.00078 43.2505 2 44.1771 2ZM38.9771 6.2C38.9771 4.37983 38.9771 3.46974 39.3313 2.77453C39.6429 2.163 40.1401 1.66582 40.7516 1.35423C41.4468 1 42.3569 1 44.1771 1H57.7771C59.5972 1 60.5073 1 61.2025 1.35423C61.814 1.66582 62.3112 2.163 62.6228 2.77453C62.9771 3.46974 62.9771 4.37983 62.9771 6.2V7.8C62.9771 9.62017 62.9771 10.5303 62.6228 11.2255C62.3112 11.837 61.814 12.3342 61.2025 12.6458C60.5073 13 59.5972 13 57.7771 13H44.1771C42.3569 13 41.4468 13 40.7516 12.6458C40.1401 12.3342 39.6429 11.837 39.3313 11.2255C38.9771 10.5303 38.9771 9.62017 38.9771 7.8V6.2ZM65.4771 7C65.4771 6.06808 64.8397 5.28503 63.9771 5.06301V8.93699C64.8397 8.71497 65.4771 7.93192 65.4771 7Z"/>
</mask>
<path d="M59.8302 2.04096L59.7488 3.03764L59.8302 2.04096ZM60.7485 2.24524L60.2945 3.13624L60.2945 3.13624L60.7485 2.24524ZM61.7318 3.22852L62.6228 2.77453L62.6228 2.77453L61.7318 3.22852ZM61.9361 4.14684L60.9394 4.22827V4.22827L61.9361 4.14684ZM61.9361 9.85316L60.9394 9.77173V9.77173L61.9361 9.85316ZM61.7318 10.7715L62.6228 11.2255L62.6228 11.2255L61.7318 10.7715ZM60.7485 11.7548L60.2945 10.8638L60.2945 10.8638L60.7485 11.7548ZM59.8302 11.959L59.9116 12.9557L59.8302 11.959ZM42.1239 11.959L42.0425 12.9557L42.0425 12.9557L42.1239 11.959ZM41.2056 11.7548L41.6596 10.8638L41.6596 10.8638L41.2056 11.7548ZM40.2223 10.7715L39.3313 11.2255L39.3313 11.2255L40.2223 10.7715ZM40.018 9.85316L41.0147 9.77173V9.77173L40.018 9.85316ZM40.018 4.14684L41.0147 4.22827L40.018 4.14684ZM40.2223 3.22852L41.1133 3.68251L41.1133 3.68251L40.2223 3.22852ZM41.2056 2.24524L41.6596 3.13624L41.6596 3.13624L41.2056 2.24524ZM42.1239 2.04096L42.2053 3.03764H42.2053L42.1239 2.04096ZM39.3313 2.77453L40.2223 3.22852L39.3313 2.77453ZM40.7516 1.35423L41.2056 2.24524L40.7516 1.35423ZM61.2025 1.35423L61.6565 0.463222V0.463222L61.2025 1.35423ZM62.6228 2.77453L61.7318 3.22852V3.22852L62.6228 2.77453ZM62.6228 11.2255L61.7318 10.7715L62.6228 11.2255ZM61.2025 12.6458L60.7485 11.7548L61.2025 12.6458ZM40.7516 12.6458L41.2056 11.7548H41.2056L40.7516 12.6458ZM39.3313 11.2255L38.4403 11.6795L38.4403 11.6795L39.3313 11.2255ZM63.9771 5.06301L64.2263 4.09457L62.9771 3.77303V5.06301H63.9771ZM63.9771 8.93699H62.9771V10.227L64.2263 9.90543L63.9771 8.93699ZM57.7771 1H44.1771V3H57.7771V1ZM59.9116 1.04428C59.3696 0.999992 58.6867 1 57.7771 1V3C58.7205 3 59.3073 3.00156 59.7488 3.03764L59.9116 1.04428ZM61.2025 1.35423C60.8547 1.17699 60.4532 1.08852 59.9116 1.04428L59.7488 3.03764C60.1675 3.07184 60.2761 3.12685 60.2945 3.13624L61.2025 1.35423ZM62.6228 2.77453C62.3112 2.163 61.814 1.66582 61.2025 1.35423L60.2945 3.13624C60.5297 3.25608 60.721 3.44731 60.8408 3.68251L62.6228 2.77453ZM62.9328 4.06541C62.8885 3.52388 62.8001 3.12237 62.6228 2.77453L60.8408 3.68251C60.8502 3.70095 60.9052 3.80959 60.9394 4.22827L62.9328 4.06541ZM62.9771 6.2C62.9771 5.29033 62.9771 4.60745 62.9328 4.06541L60.9394 4.22827C60.9755 4.66978 60.9771 5.2565 60.9771 6.2H62.9771ZM62.9771 7.8V6.2H60.9771V7.8H62.9771ZM62.9328 9.93459C62.9771 9.39255 62.9771 8.70967 62.9771 7.8H60.9771C60.9771 8.7435 60.9755 9.33022 60.9394 9.77173L62.9328 9.93459ZM62.6228 11.2255C62.8001 10.8776 62.8885 10.4761 62.9328 9.93459L60.9394 9.77173C60.9052 10.1904 60.8502 10.2991 60.8408 10.3175L62.6228 11.2255ZM61.2025 12.6458C61.814 12.3342 62.3112 11.837 62.6228 11.2255L60.8408 10.3175C60.721 10.5527 60.5297 10.7439 60.2945 10.8638L61.2025 12.6458ZM59.9116 12.9557C60.4532 12.9115 60.8547 12.823 61.2025 12.6458L60.2945 10.8638C60.2761 10.8732 60.1675 10.9282 59.7488 10.9624L59.9116 12.9557ZM57.7771 13C58.6867 13 59.3696 13 59.9116 12.9557L59.7488 10.9624C59.3073 10.9984 58.7205 11 57.7771 11V13ZM44.1771 13H57.7771V11H44.1771V13ZM42.0425 12.9557C42.5845 13 43.2674 13 44.1771 13V11C43.2336 11 42.6468 10.9984 42.2053 10.9624L42.0425 12.9557ZM40.7516 12.6458C41.0994 12.823 41.5009 12.9115 42.0425 12.9557L42.2053 10.9624C41.7866 10.9282 41.678 10.8732 41.6596 10.8638L40.7516 12.6458ZM39.3313 11.2255C39.6429 11.837 40.1401 12.3342 40.7516 12.6458L41.6596 10.8638C41.4244 10.7439 41.2331 10.5527 41.1133 10.3175L39.3313 11.2255ZM39.0213 9.93459C39.0656 10.4761 39.154 10.8776 39.3313 11.2255L41.1133 10.3175C41.1039 10.2991 41.0489 10.1904 41.0147 9.77173L39.0213 9.93459ZM38.9771 7.8C38.9771 8.70967 38.977 9.39255 39.0213 9.93459L41.0147 9.77173C40.9786 9.33022 40.9771 8.7435 40.9771 7.8H38.9771ZM38.9771 6.2V7.8H40.9771V6.2H38.9771ZM39.0213 4.06541C38.977 4.60745 38.9771 5.29033 38.9771 6.2H40.9771C40.9771 5.2565 40.9786 4.66978 41.0147 4.22827L39.0213 4.06541ZM39.3313 2.77453C39.154 3.12237 39.0656 3.52388 39.0213 4.06541L41.0147 4.22827C41.0489 3.80959 41.1039 3.70095 41.1133 3.68251L39.3313 2.77453ZM40.7516 1.35423C40.1401 1.66582 39.6429 2.163 39.3313 2.77453L41.1133 3.68251C41.2331 3.44731 41.4244 3.25608 41.6596 3.13624L40.7516 1.35423ZM42.0425 1.04428C41.5009 1.08852 41.0994 1.17699 40.7516 1.35423L41.6596 3.13624C41.678 3.12685 41.7866 3.07184 42.2053 3.03764L42.0425 1.04428ZM44.1771 1C43.2674 1 42.5845 0.999992 42.0425 1.04428L42.2053 3.03764C42.6468 3.00156 43.2336 3 44.1771 3V1ZM38.4403 2.32054C38.1794 2.83261 38.074 3.38019 38.0247 3.98397C37.9763 4.57609 37.9771 5.30642 37.9771 6.2H39.9771C39.9771 5.27341 39.9778 4.63862 40.018 4.14684C40.0572 3.66673 40.129 3.41166 40.2223 3.22852L38.4403 2.32054ZM40.2976 0.463222C39.4979 0.870684 38.8477 1.52085 38.4403 2.32054L40.2223 3.22852C40.438 2.80516 40.7822 2.46095 41.2056 2.24524L40.2976 0.463222ZM44.1771 0C43.2835 0 42.5531 -0.000777721 41.961 0.0475997C41.3572 0.0969309 40.8097 0.202307 40.2976 0.463222L41.2056 2.24524C41.3887 2.15192 41.6438 2.08018 42.1239 2.04096C42.6157 2.00078 43.2505 2 44.1771 2V0ZM57.7771 0H44.1771V2H57.7771V0ZM61.6565 0.463222C61.1444 0.202307 60.5969 0.0969309 59.9931 0.0475997C59.401 -0.000777721 58.6706 0 57.7771 0V2C58.7036 2 59.3384 2.00078 59.8302 2.04096C60.3103 2.08018 60.5654 2.15192 60.7485 2.24524L61.6565 0.463222ZM63.5138 2.32054C63.1064 1.52085 62.4562 0.870684 61.6565 0.463222L60.7485 2.24524C61.1719 2.46095 61.5161 2.80516 61.7318 3.22852L63.5138 2.32054ZM63.9771 6.2C63.9771 5.30642 63.9778 4.57609 63.9295 3.98397C63.8801 3.38019 63.7747 2.83261 63.5138 2.32054L61.7318 3.22852C61.8251 3.41166 61.8969 3.66673 61.9361 4.14684C61.9763 4.63862 61.9771 5.27341 61.9771 6.2H63.9771ZM63.9771 7.8V6.2H61.9771V7.8H63.9771ZM63.5138 11.6795C63.7747 11.1674 63.8801 10.6198 63.9295 10.016C63.9778 9.42391 63.9771 8.69358 63.9771 7.8H61.9771C61.9771 8.72659 61.9763 9.36138 61.9361 9.85316C61.8969 10.3333 61.8251 10.5883 61.7318 10.7715L63.5138 11.6795ZM61.6565 13.5368C62.4562 13.1293 63.1064 12.4791 63.5138 11.6795L61.7318 10.7715C61.5161 11.1948 61.1719 11.539 60.7485 11.7548L61.6565 13.5368ZM57.7771 14C58.6706 14 59.401 14.0008 59.9931 13.9524C60.5969 13.9031 61.1444 13.7977 61.6565 13.5368L60.7485 11.7548C60.5654 11.8481 60.3103 11.9198 59.8302 11.959C59.3384 11.9992 58.7036 12 57.7771 12V14ZM44.1771 14H57.7771V12H44.1771V14ZM40.2976 13.5368C40.8097 13.7977 41.3572 13.9031 41.961 13.9524C42.5531 14.0008 43.2835 14 44.1771 14V12C43.2505 12 42.6157 11.9992 42.1239 11.959C41.6438 11.9198 41.3887 11.8481 41.2056 11.7548L40.2976 13.5368ZM38.4403 11.6795C38.8477 12.4791 39.4979 13.1293 40.2976 13.5368L41.2056 11.7548C40.7822 11.539 40.438 11.1948 40.2223 10.7715L38.4403 11.6795ZM37.9771 7.8C37.9771 8.69358 37.9763 9.42391 38.0247 10.016C38.074 10.6198 38.1794 11.1674 38.4403 11.6795L40.2223 10.7715C40.129 10.5883 40.0572 10.3333 40.018 9.85316C39.9778 9.36138 39.9771 8.72659 39.9771 7.8H37.9771ZM37.9771 6.2V7.8H39.9771V6.2H37.9771ZM63.7278 6.03145C64.1593 6.14251 64.4771 6.53541 64.4771 7H66.4771C66.4771 5.60075 65.52 4.42755 64.2263 4.09457L63.7278 6.03145ZM64.9771 8.93699V5.06301H62.9771V8.93699H64.9771ZM64.4771 7C64.4771 7.46459 64.1593 7.85749 63.7278 7.96855L64.2263 9.90543C65.52 9.57245 66.4771 8.39925 66.4771 7H64.4771Z" fill="white" mask="url(#path-3-inside-1_607_3779)"/>
</g>
<rect x="40.9771" y="3" width="20" height="8" rx="1.5" fill="white"/>
</g>
<defs>
<clipPath id="clip0_607_3779">
<rect width="26.5" height="12" fill="white" transform="translate(38.9771 1)"/>
</clipPath>
</defs>
</svg>
