<svg width="30" height="30" viewBox="0 0 30 30" fill="none" xmlns="http://www.w3.org/2000/svg">
<path fill-rule="evenodd" clip-rule="evenodd" d="M6.375 21.25H2.125V27.625H6.375V21.25ZM17 12.75H12.75V27.625H17V12.75ZM27.625 2.125H23.375V27.625H27.625V2.125ZM23.375 0C22.8114 0 22.2709 0.223883 21.8724 0.622398C21.4739 1.02091 21.25 1.56141 21.25 2.125V27.625C21.25 28.1886 21.4739 28.7291 21.8724 29.1276C22.2709 29.5261 22.8114 29.75 23.375 29.75H27.625C28.1886 29.75 28.7291 29.5261 29.1276 29.1276C29.5261 28.7291 29.75 28.1886 29.75 27.625V2.125C29.75 1.56141 29.5261 1.02091 29.1276 0.622398C28.7291 0.223883 28.1886 0 27.625 0H23.375ZM10.625 12.75C10.625 12.1864 10.8489 11.6459 11.2474 11.2474C11.6459 10.8489 12.1864 10.625 12.75 10.625H17C17.5636 10.625 18.1041 10.8489 18.5026 11.2474C18.9011 11.6459 19.125 12.1864 19.125 12.75V27.625C19.125 28.1886 18.9011 28.7291 18.5026 29.1276C18.1041 29.5261 17.5636 29.75 17 29.75H12.75C12.1864 29.75 11.6459 29.5261 11.2474 29.1276C10.8489 28.7291 10.625 28.1886 10.625 27.625V12.75ZM0 21.25C0 20.6864 0.223883 20.1459 0.622398 19.7474C1.02091 19.3489 1.56141 19.125 2.125 19.125H6.375C6.93859 19.125 7.47909 19.3489 7.8776 19.7474C8.27612 20.1459 8.5 20.6864 8.5 21.25V27.625C8.5 28.1886 8.27612 28.7291 7.8776 29.1276C7.47909 29.5261 6.93859 29.75 6.375 29.75H2.125C1.56141 29.75 1.02091 29.5261 0.622398 29.1276C0.223883 28.7291 0 28.1886 0 27.625V21.25Z" fill="#AAAAAA"/>
</svg>
