<svg width="36" height="36" viewBox="0 0 36 36" fill="none" xmlns="http://www.w3.org/2000/svg">
<path d="M29.7083 30V13.698L18.1249 6.49802L6.54159 13.698V30H12.3333V25.875C12.3333 24.2837 12.9434 22.7576 14.0296 21.6324C15.1157 20.5072 16.5889 19.875 18.1249 19.875C19.661 19.875 21.1341 20.5072 22.2202 21.6324C23.3064 22.7576 23.9166 24.2837 23.9166 25.875V30H29.7083ZM21.0208 33V25.875C21.0208 25.0794 20.7157 24.3163 20.1726 23.7537C19.6295 23.1911 18.8929 22.875 18.1249 22.875C17.3569 22.875 16.6203 23.1911 16.0773 23.7537C15.5342 24.3163 15.2291 25.0794 15.2291 25.875V33H6.54159C5.77356 33 5.037 32.6839 4.49392 32.1213C3.95085 31.5587 3.64575 30.7957 3.64575 30V13.698C3.64575 13.18 3.77524 12.6707 4.02162 12.2199C4.268 11.7691 4.62287 11.3921 5.05168 11.1255L16.635 3.92551C17.0851 3.64576 17.6001 3.49799 18.1249 3.49799C18.6498 3.49799 19.1648 3.64576 19.6148 3.92551L31.1982 11.1255C31.627 11.3921 31.9818 11.7691 32.2282 12.2199C32.4746 12.6707 32.6041 13.18 32.6041 13.698V30C32.6041 30.7957 32.299 31.5587 31.7559 32.1213C31.2128 32.6839 30.4763 33 29.7083 33H21.0208Z" fill="#AAAAAA"/>
</svg>
