<svg width="60" height="60" viewBox="0 0 60 60" fill="none" xmlns="http://www.w3.org/2000/svg">
<g clip-path="url(#clip0_614_8294)">
<path d="M40.9047 21.2828L35.1734 41.6156C35.0778 41.9599 34.8785 42.2664 34.6026 42.4934C34.3267 42.7204 33.9875 42.8569 33.6312 42.8844H33.4781C33.1485 42.8836 32.8258 42.7898 32.5471 42.6137C32.2685 42.4377 32.0452 42.1865 31.9031 41.8891L27.9984 33.6422C27.9601 33.5594 27.9479 33.4669 27.9636 33.377C27.9792 33.2871 28.0219 33.2041 28.0859 33.1391L33.6969 27.5281C33.7847 27.4485 33.8554 27.3519 33.9048 27.2442C33.9542 27.1364 33.9811 27.0197 33.9841 26.9012C33.987 26.7828 33.9658 26.6649 33.9218 26.5548C33.8778 26.4448 33.8119 26.3448 33.7281 26.261C33.6442 26.1772 33.5443 26.1113 33.4342 26.0673C33.3241 26.0232 33.2063 26.0021 33.0878 26.005C32.9693 26.0079 32.8526 26.0349 32.7449 26.0842C32.6371 26.1336 32.5405 26.2044 32.4609 26.2922L26.85 31.9141C26.785 31.9781 26.702 32.0208 26.6121 32.0364C26.5222 32.0521 26.4297 32.0399 26.3469 32.0016L18.1437 28.1188C17.8227 27.9671 17.5531 27.7247 17.3684 27.4214C17.1837 27.1181 17.092 26.7674 17.1047 26.4125C17.124 26.0471 17.2581 25.6972 17.4879 25.4125C17.7176 25.1277 18.0313 24.9227 18.3844 24.8266L38.7609 19.0844C39.1173 18.9826 39.4968 18.9966 39.8447 19.1244C40.1927 19.2521 40.491 19.4871 40.6969 19.7953C40.835 20.0144 40.9249 20.2603 40.9607 20.5167C40.9966 20.7732 40.9774 21.0343 40.9047 21.2828Z" fill="url(#paint0_linear_614_8294)"/>
</g>
<rect x="0.5" y="0.5" width="59" height="59" rx="29.5" stroke="url(#paint1_linear_614_8294)"/>
<defs>
<linearGradient id="paint0_linear_614_8294" x1="29.0409" y1="19.0171" x2="29.0409" y2="42.8844" gradientUnits="userSpaceOnUse">
<stop stop-color="#0071D9"/>
<stop offset="1" stop-color="#5DAEFA"/>
</linearGradient>
<linearGradient id="paint1_linear_614_8294" x1="30" y1="0" x2="30" y2="60" gradientUnits="userSpaceOnUse">
<stop stop-color="#0071D9"/>
<stop offset="1" stop-color="#5DAEFA"/>
</linearGradient>
<clipPath id="clip0_614_8294">
<rect width="28" height="28" fill="white" transform="translate(16 16)"/>
</clipPath>
</defs>
</svg>
