<svg width="24" height="24" viewBox="0 0 24 24" fill="none" xmlns="http://www.w3.org/2000/svg">
<rect width="24" height="24" rx="12" fill="white" fill-opacity="0.15"/>
<path fill-rule="evenodd" clip-rule="evenodd" d="M8.22678 13.8518C8.27903 13.7994 8.3411 13.7578 8.40944 13.7295C8.47778 13.7011 8.55104 13.6865 8.62503 13.6865C8.69902 13.6865 8.77228 13.7011 8.84062 13.7295C8.90895 13.7578 8.97103 13.7994 9.02328 13.8518L12 16.8297L14.9768 13.8518C15.0824 13.7462 15.2257 13.6868 15.375 13.6868C15.5244 13.6868 15.6677 13.7462 15.7733 13.8518C15.8789 13.9574 15.9382 14.1007 15.9382 14.25C15.9382 14.3994 15.8789 14.5427 15.7733 14.6483L12.3983 18.0233C12.346 18.0757 12.284 18.1172 12.2156 18.1456C12.1473 18.1739 12.074 18.1885 12 18.1885C11.926 18.1885 11.8528 18.1739 11.7844 18.1456C11.7161 18.1172 11.654 18.0757 11.6018 18.0233L8.22678 14.6483C8.17439 14.596 8.13283 14.534 8.10448 14.4656C8.07612 14.3973 8.06152 14.324 8.06152 14.25C8.06152 14.176 8.07612 14.1028 8.10448 14.0344C8.13283 13.9661 8.17439 13.904 8.22678 13.8518V13.8518Z" fill="white"/>
<path fill-rule="evenodd" clip-rule="evenodd" d="M12 5.8125C12.1492 5.8125 12.2923 5.87176 12.3977 5.97725C12.5032 6.08274 12.5625 6.22582 12.5625 6.375V16.5C12.5625 16.6492 12.5032 16.7923 12.3977 16.8977C12.2923 17.0032 12.1492 17.0625 12 17.0625C11.8508 17.0625 11.7077 17.0032 11.6023 16.8977C11.4968 16.7923 11.4375 16.6492 11.4375 16.5V6.375C11.4375 6.22582 11.4968 6.08274 11.6023 5.97725C11.7077 5.87176 11.8508 5.8125 12 5.8125V5.8125Z" fill="white"/>
</svg>
