<svg width="1679" height="691" viewBox="0 0 1679 691" fill="none" xmlns="http://www.w3.org/2000/svg">
<path d="M1358 404H1679V665.759C1679 665.759 1641.78 691 1518.5 691C1395.22 691 1358 665.759 1358 665.759V404Z" fill="url(#paint0_linear_658_2684)"/>
<path opacity="0.1" d="M1359 511.84C1359 567.709 1402.73 613 1456.66 613C1510.6 613 1554.33 567.709 1554.33 511.84C1554.33 455.971 1510.6 410.68 1456.66 410.68C1402.73 410.68 1359 455.971 1359 511.84ZM1534.79 511.84C1534.79 556.535 1499.81 592.768 1456.66 592.768C1413.51 592.768 1378.53 556.535 1378.53 511.84C1378.53 467.145 1413.51 430.912 1456.66 430.912C1499.81 430.912 1534.79 467.145 1534.79 511.84Z" fill="url(#paint1_linear_658_2684)"/>
<path opacity="0.1" d="M1464.03 471.281C1464.03 504.75 1490.23 531.881 1522.54 531.881C1554.85 531.881 1581.05 504.75 1581.05 471.281C1581.05 437.812 1554.85 410.68 1522.54 410.68C1490.23 410.68 1464.03 437.812 1464.03 471.281ZM1569.34 471.281C1569.34 498.056 1548.39 519.761 1522.54 519.761C1496.69 519.761 1475.73 498.056 1475.73 471.281C1475.73 444.506 1496.69 422.801 1522.54 422.801C1548.39 422.801 1569.34 444.506 1569.34 471.281Z" fill="url(#paint2_linear_658_2684)"/>
<path opacity="0.1" d="M1605 444.559C1605 466.96 1587.47 485.119 1565.84 485.119C1544.22 485.119 1526.69 466.96 1526.69 444.559C1526.69 422.159 1544.22 404 1565.84 404C1587.47 404 1605 422.159 1605 444.559ZM1534.52 444.559C1534.52 462.48 1548.54 477.007 1565.84 477.007C1583.14 477.007 1597.17 462.48 1597.17 444.559C1597.17 426.639 1583.14 412.112 1565.84 412.112C1548.54 412.112 1534.52 426.639 1534.52 444.559Z" fill="url(#paint3_linear_658_2684)"/>
<path opacity="0.1" d="M0.000183105 107.84C0.000183105 163.709 43.7254 209 97.6632 209C151.601 209 195.326 163.709 195.326 107.84C195.326 51.9712 151.601 6.68042 97.6632 6.68042C43.7254 6.68042 0.000183105 51.9712 0.000183105 107.84ZM175.794 107.84C175.794 152.535 140.813 188.768 97.6632 188.768C54.513 188.768 19.5328 152.535 19.5328 107.84C19.5328 63.145 54.513 26.9124 97.6632 26.9124C140.813 26.9124 175.794 63.145 175.794 107.84Z" fill="url(#paint4_linear_658_2684)"/>
<path opacity="0.1" d="M105.034 67.2809C105.034 100.75 131.227 127.881 163.539 127.881C195.851 127.881 222.045 100.75 222.045 67.2809C222.045 33.8122 195.851 6.68042 163.539 6.68042C131.227 6.68042 105.034 33.8122 105.034 67.2809ZM210.344 67.2809C210.344 94.0558 189.389 115.761 163.539 115.761C137.69 115.761 116.735 94.0558 116.735 67.2809C116.735 40.5059 137.69 18.8005 163.539 18.8005C189.389 18.8005 210.344 40.5059 210.344 67.2809Z" fill="url(#paint5_linear_658_2684)"/>
<path opacity="0.1" d="M246 40.5594C246 62.9597 228.469 81.1187 206.843 81.1187C185.217 81.1187 167.686 62.9597 167.686 40.5594C167.686 18.159 185.217 0 206.843 0C228.469 0 246 18.159 246 40.5594ZM175.517 40.5594C175.517 58.4796 189.542 73.0068 206.843 73.0068C224.144 73.0068 238.169 58.4796 238.169 40.5594C238.169 22.6391 224.144 8.11187 206.843 8.11187C189.542 8.11187 175.517 22.6391 175.517 40.5594Z" fill="url(#paint6_linear_658_2684)"/>
<defs>
<linearGradient id="paint0_linear_658_2684" x1="1349.86" y1="386.929" x2="1623.34" y2="735.494" gradientUnits="userSpaceOnUse">
<stop stop-color="#0071D9"/>
<stop offset="1" stop-color="#5DAEFA"/>
</linearGradient>
<linearGradient id="paint1_linear_658_2684" x1="1529.91" y1="412.979" x2="1312.78" y2="622.603" gradientUnits="userSpaceOnUse">
<stop stop-color="white" stop-opacity="0"/>
<stop offset="1" stop-color="white" stop-opacity="0.7"/>
</linearGradient>
<linearGradient id="paint2_linear_658_2684" x1="1566.42" y1="412.058" x2="1436.35" y2="537.634" gradientUnits="userSpaceOnUse">
<stop stop-color="white" stop-opacity="0"/>
<stop offset="1" stop-color="white" stop-opacity="0.7"/>
</linearGradient>
<linearGradient id="paint3_linear_658_2684" x1="1536.47" y1="404.922" x2="1623.53" y2="488.969" gradientUnits="userSpaceOnUse">
<stop stop-color="white" stop-opacity="0"/>
<stop offset="1" stop-color="white" stop-opacity="0.7"/>
</linearGradient>
<linearGradient id="paint4_linear_658_2684" x1="170.91" y1="8.97949" x2="-46.2189" y2="218.603" gradientUnits="userSpaceOnUse">
<stop stop-color="white" stop-opacity="0"/>
<stop offset="1" stop-color="white" stop-opacity="0.7"/>
</linearGradient>
<linearGradient id="paint5_linear_658_2684" x1="207.419" y1="8.05769" x2="77.3458" y2="133.634" gradientUnits="userSpaceOnUse">
<stop stop-color="white" stop-opacity="0"/>
<stop offset="1" stop-color="white" stop-opacity="0.7"/>
</linearGradient>
<linearGradient id="paint6_linear_658_2684" x1="177.475" y1="0.921797" x2="264.531" y2="84.9691" gradientUnits="userSpaceOnUse">
<stop stop-color="white" stop-opacity="0"/>
<stop offset="1" stop-color="white" stop-opacity="0.7"/>
</linearGradient>
</defs>
</svg>
