<svg width="352" height="14" viewBox="0 0 352 14" fill="none" xmlns="http://www.w3.org/2000/svg">
<path d="M3.94922 11.2168C6.15234 11.2168 7.47656 9.51758 7.47656 6.70508C7.47656 5.55078 7.23633 4.57812 6.76758 3.85156C6.18164 2.86133 5.19727 2.32812 3.97852 2.32812C2.08594 2.32812 0.744141 3.57617 0.744141 5.33398C0.744141 6.95117 1.92188 8.13477 3.52734 8.13477C4.51172 8.13477 5.29688 7.68359 5.68359 6.88672H5.69531C5.69531 6.88672 5.72461 6.88672 5.73633 6.88672C5.75391 6.88672 5.78906 6.88672 5.78906 6.88672C5.82422 8.64453 5.12109 9.76367 3.96094 9.76367C3.29883 9.76367 2.77148 9.41211 2.60742 8.85547H0.855469C1.0957 10.2617 2.34375 11.2168 3.94922 11.2168ZM3.99023 6.76953C3.10547 6.76953 2.46094 6.14258 2.46094 5.27539C2.46094 4.43164 3.12891 3.77539 3.99609 3.77539C4.86328 3.77539 5.52539 4.4375 5.52539 5.29297C5.52539 6.14258 4.875 6.76953 3.99023 6.76953ZM9.96703 10.1445C10.5998 10.1445 11.0041 9.7168 11.0041 9.125C11.0041 8.5332 10.5998 8.11133 9.96703 8.11133C9.34008 8.11133 8.92992 8.5332 8.92992 9.125C8.92992 9.7168 9.34008 10.1445 9.96703 10.1445ZM9.96703 5.82031C10.5998 5.82031 11.0041 5.39258 11.0041 4.80078C11.0041 4.20898 10.5998 3.78711 9.96703 3.78711C9.34008 3.78711 8.92992 4.20898 8.92992 4.80078C8.92992 5.39258 9.34008 5.82031 9.96703 5.82031ZM16.6177 11H18.3052V9.52344H19.4126V8.05273H18.3052V2.54492H15.8266C14.3442 4.77734 13.2427 6.52344 12.4809 7.95898V9.52344H16.6177V11ZM14.0688 8.01172C15.0356 6.25977 15.7915 5.07617 16.5649 3.92188H16.6587V8.10547H14.0688V8.01172ZM22.5827 11H24.3523V2.54492H22.5886L20.403 4.05078V5.69727L22.4773 4.26758H22.5827V11Z" fill="white"/>
<path fill-rule="evenodd" clip-rule="evenodd" d="M299.576 2.61732C299.5 2.80109 299.5 3.03406 299.5 3.5V10.5C299.5 10.9659 299.5 11.1989 299.576 11.3827C299.678 11.6277 299.872 11.8224 300.117 11.9239C300.301 12 300.534 12 301 12C301.466 12 301.699 12 301.883 11.9239C302.128 11.8224 302.322 11.6277 302.424 11.3827C302.5 11.1989 302.5 10.9659 302.5 10.5V3.5C302.5 3.03406 302.5 2.80109 302.424 2.61732C302.322 2.37229 302.128 2.17761 301.883 2.07612C301.699 2 301.466 2 301 2C300.534 2 300.301 2 300.117 2.07612C299.872 2.17761 299.678 2.37229 299.576 2.61732ZM295 5.5C295 5.03406 295 4.80109 295.076 4.61732C295.178 4.37229 295.372 4.17761 295.617 4.07612C295.801 4 296.034 4 296.5 4C296.966 4 297.199 4 297.383 4.07612C297.628 4.17761 297.822 4.37229 297.924 4.61732C298 4.80109 298 5.03406 298 5.5V10.5C298 10.9659 298 11.1989 297.924 11.3827C297.822 11.6277 297.628 11.8224 297.383 11.9239C297.199 12 296.966 12 296.5 12C296.034 12 295.801 12 295.617 11.9239C295.372 11.8224 295.178 11.6277 295.076 11.3827C295 11.1989 295 10.9659 295 10.5V5.5ZM290.576 6.61732C290.5 6.80109 290.5 7.03406 290.5 7.5V10.5C290.5 10.9659 290.5 11.1989 290.576 11.3827C290.678 11.6277 290.872 11.8224 291.117 11.9239C291.301 12 291.534 12 292 12C292.466 12 292.699 12 292.883 11.9239C293.128 11.8224 293.322 11.6277 293.424 11.3827C293.5 11.1989 293.5 10.9659 293.5 10.5V7.5C293.5 7.03406 293.5 6.80109 293.424 6.61732C293.322 6.37229 293.128 6.17761 292.883 6.07612C292.699 6 292.466 6 292 6C291.534 6 291.301 6 291.117 6.07612C290.872 6.17761 290.678 6.37229 290.576 6.61732ZM286.076 8.11732C286 8.30109 286 8.53406 286 9V10.5C286 10.9659 286 11.1989 286.076 11.3827C286.178 11.6277 286.372 11.8224 286.617 11.9239C286.801 12 287.034 12 287.5 12C287.966 12 288.199 12 288.383 11.9239C288.628 11.8224 288.822 11.6277 288.924 11.3827C289 11.1989 289 10.9659 289 10.5V9C289 8.53406 289 8.30109 288.924 8.11732C288.822 7.87229 288.628 7.67761 288.383 7.57612C288.199 7.5 287.966 7.5 287.5 7.5C287.034 7.5 286.801 7.5 286.617 7.57612C286.372 7.67761 286.178 7.87229 286.076 8.11732Z" fill="white"/>
<path fill-rule="evenodd" clip-rule="evenodd" d="M319.477 5.99585C319.59 6.10235 319.765 6.10285 319.876 5.99285L320.94 4.92885C321.054 4.81385 321.055 4.62435 320.937 4.51285C319.128 2.80035 316.686 1.74985 313.999 1.74985C311.311 1.74985 308.87 2.80035 307.061 4.51285C306.943 4.62435 306.943 4.81385 307.058 4.92885L308.122 5.99285C308.232 6.10285 308.407 6.10235 308.521 5.99585C309.955 4.65135 311.882 3.82685 313.999 3.82685C316.115 3.82685 318.042 4.65135 319.477 5.99585ZM317.03 8.4463C317.145 8.5493 317.318 8.5503 317.427 8.4408L318.49 7.3783C318.605 7.2628 318.606 7.0703 318.486 6.9598C317.305 5.8743 315.729 5.2113 313.999 5.2113C312.268 5.2113 310.693 5.8743 309.512 6.9598C309.392 7.0703 309.392 7.2628 309.508 7.3783L310.57 8.4408C310.68 8.5503 310.852 8.5493 310.968 8.4463C311.774 7.7268 312.836 7.2883 313.999 7.2883C315.162 7.2883 316.224 7.7268 317.03 8.4463ZM316.034 9.41095C316.159 9.51595 316.158 9.71145 316.042 9.82745L314.204 11.6654C314.092 11.7779 313.909 11.7779 313.796 11.6654L311.958 9.82745C311.842 9.71145 311.841 9.51595 311.967 9.41095C312.517 8.95045 313.226 8.67295 314 8.67295C314.774 8.67295 315.483 8.95045 316.034 9.41095Z" fill="white"/>
<g clip-path="url(#clip0_607_3930)">
<g opacity="0.4">
<mask id="path-4-inside-1_607_3930" fill="white">
<path fill-rule="evenodd" clip-rule="evenodd" d="M330.177 2H343.777C344.704 2 345.339 2.00078 345.83 2.04096C346.311 2.08018 346.566 2.15192 346.749 2.24524C347.172 2.46095 347.516 2.80516 347.732 3.22852C347.825 3.41166 347.897 3.66673 347.936 4.14684C347.977 4.63862 347.977 5.27341 347.977 6.2V7.8C347.977 8.72659 347.977 9.36138 347.936 9.85316C347.897 10.3333 347.825 10.5883 347.732 10.7715C347.516 11.1948 347.172 11.539 346.749 11.7548C346.566 11.8481 346.311 11.9198 345.83 11.959C345.339 11.9992 344.704 12 343.777 12H330.177C329.251 12 328.616 11.9992 328.124 11.959C327.644 11.9198 327.389 11.8481 327.206 11.7548C326.782 11.539 326.438 11.1948 326.223 10.7715C326.129 10.5883 326.057 10.3333 326.018 9.85316C325.978 9.36138 325.977 8.72659 325.977 7.8V6.2C325.977 5.27341 325.978 4.63862 326.018 4.14684C326.057 3.66673 326.129 3.41166 326.223 3.22852C326.438 2.80516 326.782 2.46095 327.206 2.24524C327.389 2.15192 327.644 2.08018 328.124 2.04096C328.616 2.00078 329.251 2 330.177 2ZM324.977 6.2C324.977 4.37983 324.977 3.46974 325.332 2.77453C325.643 2.163 326.14 1.66582 326.752 1.35423C327.447 1 328.357 1 330.177 1H343.777C345.597 1 346.508 1 347.203 1.35423C347.814 1.66582 348.311 2.163 348.623 2.77453C348.977 3.46974 348.977 4.37983 348.977 6.2V7.8C348.977 9.62017 348.977 10.5303 348.623 11.2255C348.311 11.837 347.814 12.3342 347.203 12.6458C346.508 13 345.597 13 343.777 13H330.177C328.357 13 327.447 13 326.752 12.6458C326.14 12.3342 325.643 11.837 325.332 11.2255C324.977 10.5303 324.977 9.62017 324.977 7.8V6.2ZM351.477 7C351.477 6.06808 350.84 5.28503 349.977 5.06301V8.93699C350.84 8.71497 351.477 7.93192 351.477 7Z"/>
</mask>
<path d="M345.83 2.04096L345.749 3.03764L345.83 2.04096ZM346.749 2.24524L346.295 3.13624L346.295 3.13624L346.749 2.24524ZM347.732 3.22852L348.623 2.77453L348.623 2.77453L347.732 3.22852ZM347.936 4.14684L346.94 4.22827V4.22827L347.936 4.14684ZM347.936 9.85316L346.94 9.77173V9.77173L347.936 9.85316ZM347.732 10.7715L348.623 11.2255L348.623 11.2255L347.732 10.7715ZM346.749 11.7548L346.295 10.8638L346.295 10.8638L346.749 11.7548ZM345.83 11.959L345.912 12.9557L345.83 11.959ZM328.124 11.959L328.043 12.9557L328.043 12.9557L328.124 11.959ZM327.206 11.7548L327.66 10.8638L327.66 10.8638L327.206 11.7548ZM326.223 10.7715L325.332 11.2255L325.332 11.2255L326.223 10.7715ZM326.018 9.85316L327.015 9.77173V9.77173L326.018 9.85316ZM326.018 4.14684L327.015 4.22827L326.018 4.14684ZM326.223 3.22852L327.114 3.68251L327.114 3.68251L326.223 3.22852ZM327.206 2.24524L327.66 3.13624L327.66 3.13624L327.206 2.24524ZM328.124 2.04096L328.206 3.03764H328.206L328.124 2.04096ZM325.332 2.77453L326.223 3.22852L325.332 2.77453ZM326.752 1.35423L327.206 2.24524L326.752 1.35423ZM347.203 1.35423L347.657 0.463222V0.463222L347.203 1.35423ZM348.623 2.77453L347.732 3.22852V3.22852L348.623 2.77453ZM348.623 11.2255L347.732 10.7715L348.623 11.2255ZM347.203 12.6458L346.749 11.7548L347.203 12.6458ZM326.752 12.6458L327.206 11.7548H327.206L326.752 12.6458ZM325.332 11.2255L324.441 11.6795L324.441 11.6795L325.332 11.2255ZM349.977 5.06301L350.227 4.09457L348.977 3.77303V5.06301H349.977ZM349.977 8.93699H348.977V10.227L350.227 9.90543L349.977 8.93699ZM343.777 1H330.177V3H343.777V1ZM345.912 1.04428C345.37 0.999992 344.687 1 343.777 1V3C344.721 3 345.308 3.00156 345.749 3.03764L345.912 1.04428ZM347.203 1.35423C346.855 1.17699 346.453 1.08852 345.912 1.04428L345.749 3.03764C346.168 3.07184 346.276 3.12685 346.295 3.13624L347.203 1.35423ZM348.623 2.77453C348.311 2.163 347.814 1.66582 347.203 1.35423L346.295 3.13624C346.53 3.25608 346.721 3.44731 346.841 3.68251L348.623 2.77453ZM348.933 4.06541C348.889 3.52388 348.8 3.12237 348.623 2.77453L346.841 3.68251C346.85 3.70095 346.905 3.80959 346.94 4.22827L348.933 4.06541ZM348.977 6.2C348.977 5.29033 348.977 4.60745 348.933 4.06541L346.94 4.22827C346.976 4.66978 346.977 5.2565 346.977 6.2H348.977ZM348.977 7.8V6.2H346.977V7.8H348.977ZM348.933 9.93459C348.977 9.39255 348.977 8.70967 348.977 7.8H346.977C346.977 8.7435 346.976 9.33022 346.94 9.77173L348.933 9.93459ZM348.623 11.2255C348.8 10.8776 348.889 10.4761 348.933 9.93459L346.94 9.77173C346.905 10.1904 346.85 10.2991 346.841 10.3175L348.623 11.2255ZM347.203 12.6458C347.814 12.3342 348.311 11.837 348.623 11.2255L346.841 10.3175C346.721 10.5527 346.53 10.7439 346.295 10.8638L347.203 12.6458ZM345.912 12.9557C346.453 12.9115 346.855 12.823 347.203 12.6458L346.295 10.8638C346.276 10.8732 346.168 10.9282 345.749 10.9624L345.912 12.9557ZM343.777 13C344.687 13 345.37 13 345.912 12.9557L345.749 10.9624C345.308 10.9984 344.721 11 343.777 11V13ZM330.177 13H343.777V11H330.177V13ZM328.043 12.9557C328.585 13 329.268 13 330.177 13V11C329.234 11 328.647 10.9984 328.206 10.9624L328.043 12.9557ZM326.752 12.6458C327.1 12.823 327.501 12.9115 328.043 12.9557L328.206 10.9624C327.787 10.9282 327.678 10.8732 327.66 10.8638L326.752 12.6458ZM325.332 11.2255C325.643 11.837 326.14 12.3342 326.752 12.6458L327.66 10.8638C327.425 10.7439 327.233 10.5527 327.114 10.3175L325.332 11.2255ZM325.022 9.93459C325.066 10.4761 325.154 10.8776 325.332 11.2255L327.114 10.3175C327.104 10.2991 327.049 10.1904 327.015 9.77173L325.022 9.93459ZM324.977 7.8C324.977 8.70967 324.977 9.39255 325.022 9.93459L327.015 9.77173C326.979 9.33022 326.977 8.7435 326.977 7.8H324.977ZM324.977 6.2V7.8H326.977V6.2H324.977ZM325.022 4.06541C324.977 4.60745 324.977 5.29033 324.977 6.2H326.977C326.977 5.2565 326.979 4.66978 327.015 4.22827L325.022 4.06541ZM325.332 2.77453C325.154 3.12237 325.066 3.52388 325.022 4.06541L327.015 4.22827C327.049 3.80959 327.104 3.70095 327.114 3.68251L325.332 2.77453ZM326.752 1.35423C326.14 1.66582 325.643 2.163 325.332 2.77453L327.114 3.68251C327.233 3.44731 327.425 3.25608 327.66 3.13624L326.752 1.35423ZM328.043 1.04428C327.501 1.08852 327.1 1.17699 326.752 1.35423L327.66 3.13624C327.678 3.12685 327.787 3.07184 328.206 3.03764L328.043 1.04428ZM330.177 1C329.268 1 328.585 0.999992 328.043 1.04428L328.206 3.03764C328.647 3.00156 329.234 3 330.177 3V1ZM324.441 2.32054C324.18 2.83261 324.074 3.38019 324.025 3.98397C323.977 4.57609 323.977 5.30642 323.977 6.2H325.977C325.977 5.27341 325.978 4.63862 326.018 4.14684C326.057 3.66673 326.129 3.41166 326.223 3.22852L324.441 2.32054ZM326.298 0.463222C325.498 0.870684 324.848 1.52085 324.441 2.32054L326.223 3.22852C326.438 2.80516 326.782 2.46095 327.206 2.24524L326.298 0.463222ZM330.177 0C329.284 0 328.553 -0.000777721 327.961 0.0475997C327.357 0.0969309 326.81 0.202307 326.298 0.463222L327.206 2.24524C327.389 2.15192 327.644 2.08018 328.124 2.04096C328.616 2.00078 329.251 2 330.177 2V0ZM343.777 0H330.177V2H343.777V0ZM347.657 0.463222C347.145 0.202307 346.597 0.0969309 345.993 0.0475997C345.401 -0.000777721 344.671 0 343.777 0V2C344.704 2 345.339 2.00078 345.83 2.04096C346.311 2.08018 346.566 2.15192 346.749 2.24524L347.657 0.463222ZM349.514 2.32054C349.107 1.52085 348.456 0.870684 347.657 0.463222L346.749 2.24524C347.172 2.46095 347.516 2.80516 347.732 3.22852L349.514 2.32054ZM349.977 6.2C349.977 5.30642 349.978 4.57609 349.93 3.98397C349.88 3.38019 349.775 2.83261 349.514 2.32054L347.732 3.22852C347.825 3.41166 347.897 3.66673 347.936 4.14684C347.977 4.63862 347.977 5.27341 347.977 6.2H349.977ZM349.977 7.8V6.2H347.977V7.8H349.977ZM349.514 11.6795C349.775 11.1674 349.88 10.6198 349.93 10.016C349.978 9.42391 349.977 8.69358 349.977 7.8H347.977C347.977 8.72659 347.977 9.36138 347.936 9.85316C347.897 10.3333 347.825 10.5883 347.732 10.7715L349.514 11.6795ZM347.657 13.5368C348.456 13.1293 349.107 12.4791 349.514 11.6795L347.732 10.7715C347.516 11.1948 347.172 11.539 346.749 11.7548L347.657 13.5368ZM343.777 14C344.671 14 345.401 14.0008 345.993 13.9524C346.597 13.9031 347.145 13.7977 347.657 13.5368L346.749 11.7548C346.566 11.8481 346.311 11.9198 345.83 11.959C345.339 11.9992 344.704 12 343.777 12V14ZM330.177 14H343.777V12H330.177V14ZM326.298 13.5368C326.81 13.7977 327.357 13.9031 327.961 13.9524C328.553 14.0008 329.284 14 330.177 14V12C329.251 12 328.616 11.9992 328.124 11.959C327.644 11.9198 327.389 11.8481 327.206 11.7548L326.298 13.5368ZM324.441 11.6795C324.848 12.4791 325.498 13.1293 326.298 13.5368L327.206 11.7548C326.782 11.539 326.438 11.1948 326.223 10.7715L324.441 11.6795ZM323.977 7.8C323.977 8.69358 323.977 9.42391 324.025 10.016C324.074 10.6198 324.18 11.1674 324.441 11.6795L326.223 10.7715C326.129 10.5883 326.057 10.3333 326.018 9.85316C325.978 9.36138 325.977 8.72659 325.977 7.8H323.977ZM323.977 6.2V7.8H325.977V6.2H323.977ZM349.728 6.03145C350.16 6.14251 350.477 6.53541 350.477 7H352.477C352.477 5.60075 351.52 4.42755 350.227 4.09457L349.728 6.03145ZM350.977 8.93699V5.06301H348.977V8.93699H350.977ZM350.477 7C350.477 7.46459 350.16 7.85749 349.728 7.96855L350.227 9.90543C351.52 9.57245 352.477 8.39925 352.477 7H350.477Z" fill="white" mask="url(#path-4-inside-1_607_3930)"/>
</g>
<rect x="326.977" y="3" width="20" height="8" rx="1.5" fill="white"/>
</g>
<defs>
<clipPath id="clip0_607_3930">
<rect width="26.5" height="12" fill="white" transform="translate(324.977 1)"/>
</clipPath>
</defs>
</svg>
