<svg width="425" height="450" viewBox="0 0 425 450" fill="none" xmlns="http://www.w3.org/2000/svg">
<path d="M0 0H425V450L0 411.394V0Z" fill="#E6F3FF"/>
<path d="M334.669 212.5C334.669 279.505 280.863 333.815 214.5 333.815C148.137 333.815 94.3311 279.505 94.3311 212.5C94.3311 145.495 148.137 91.1848 214.5 91.1848C280.863 91.1848 334.669 145.495 334.669 212.5Z" stroke="white"/>
<path d="M376.233 212.5C376.233 302.302 303.82 375.097 214.5 375.097C125.18 375.097 52.7676 302.302 52.7676 212.5C52.7676 122.698 125.18 49.9028 214.5 49.9028C303.82 49.9028 376.233 122.698 376.233 212.5Z" stroke="white"/>
<path d="M424.5 212.5C424.5 329.589 330.475 424.5 214.5 424.5C98.5247 424.5 4.5 329.589 4.5 212.5C4.5 95.4112 98.5247 0.5 214.5 0.5C330.475 0.5 424.5 95.4112 424.5 212.5Z" stroke="white"/>
</svg>
