<svg width="414" height="405" viewBox="0 0 414 405" fill="none" xmlns="http://www.w3.org/2000/svg">
<mask id="mask0_834_3493" style="mask-type:alpha" maskUnits="userSpaceOnUse" x="0" y="0" width="414" height="405">
<path d="M0 0H414V404.5L0 365.5V0Z" fill="#F2FBF0"/>
</mask>
<g mask="url(#mask0_834_3493)">
<path d="M-20 0H354V300L-20 274.262V0Z" fill="#E8F4FF"/>
<path d="M277.965 142C277.965 185.944 232.877 221.755 177 221.755C121.123 221.755 76.0352 185.944 76.0352 142C76.0352 98.0555 121.123 62.2452 177 62.2452C232.877 62.2452 277.965 98.0555 277.965 142Z" stroke="white"/>
<path d="M312.914 142C312.914 200.964 252.181 248.952 177 248.952C101.819 248.952 41.0864 200.964 41.0864 142C41.0864 83.0365 101.819 35.0478 177 35.0478C252.181 35.0478 312.914 83.0365 312.914 142Z" stroke="white"/>
<path d="M353.5 142C353.5 218.941 274.594 281.5 177 281.5C79.4061 281.5 0.5 218.941 0.5 142C0.5 65.0592 79.4061 2.5 177 2.5C274.594 2.5 353.5 65.0592 353.5 142Z" stroke="white"/>
</g>
</svg>
