<svg width="60" height="60" viewBox="0 0 60 60" fill="none" xmlns="http://www.w3.org/2000/svg">
<g clip-path="url(#clip0_614_8277)">
<path d="M27.1875 19.6875H21.5625C20.527 19.6875 19.6875 20.527 19.6875 21.5625V27.1875C19.6875 28.223 20.527 29.0625 21.5625 29.0625H27.1875C28.223 29.0625 29.0625 28.223 29.0625 27.1875V21.5625C29.0625 20.527 28.223 19.6875 27.1875 19.6875Z" fill="url(#paint0_linear_614_8277)"/>
<path d="M27.1875 30.9375H21.5625C20.527 30.9375 19.6875 31.777 19.6875 32.8125V38.4375C19.6875 39.473 20.527 40.3125 21.5625 40.3125H27.1875C28.223 40.3125 29.0625 39.473 29.0625 38.4375V32.8125C29.0625 31.777 28.223 30.9375 27.1875 30.9375Z" fill="url(#paint1_linear_614_8277)"/>
<path d="M38.4375 19.6875H32.8125C31.777 19.6875 30.9375 20.527 30.9375 21.5625V27.1875C30.9375 28.223 31.777 29.0625 32.8125 29.0625H38.4375C39.473 29.0625 40.3125 28.223 40.3125 27.1875V21.5625C40.3125 20.527 39.473 19.6875 38.4375 19.6875Z" fill="url(#paint2_linear_614_8277)"/>
<path d="M31.875 36.5625C32.1236 36.5625 32.3621 36.4637 32.5379 36.2879C32.7137 36.1121 32.8125 35.8736 32.8125 35.625V31.875C32.8125 31.6264 32.7137 31.3879 32.5379 31.2121C32.3621 31.0363 32.1236 30.9375 31.875 30.9375C31.6264 30.9375 31.3879 31.0363 31.2121 31.2121C31.0363 31.3879 30.9375 31.6264 30.9375 31.875V35.625C30.9375 35.8736 31.0363 36.1121 31.2121 36.2879C31.3879 36.4637 31.6264 36.5625 31.875 36.5625Z" fill="url(#paint3_linear_614_8277)"/>
<path d="M39.375 32.8125H36.5625V31.875C36.5625 31.6264 36.4637 31.3879 36.2879 31.2121C36.1121 31.0363 35.8736 30.9375 35.625 30.9375C35.3764 30.9375 35.1379 31.0363 34.9621 31.2121C34.7863 31.3879 34.6875 31.6264 34.6875 31.875V38.4375H31.875C31.6264 38.4375 31.3879 38.5363 31.2121 38.7121C31.0363 38.8879 30.9375 39.1264 30.9375 39.375C30.9375 39.6236 31.0363 39.8621 31.2121 40.0379C31.3879 40.2137 31.6264 40.3125 31.875 40.3125H35.625C35.8736 40.3125 36.1121 40.2137 36.2879 40.0379C36.4637 39.8621 36.5625 39.6236 36.5625 39.375V34.6875H39.375C39.6236 34.6875 39.8621 34.5887 40.0379 34.4129C40.2137 34.2371 40.3125 33.9986 40.3125 33.75C40.3125 33.5014 40.2137 33.2629 40.0379 33.0871C39.8621 32.9113 39.6236 32.8125 39.375 32.8125Z" fill="url(#paint4_linear_614_8277)"/>
<path d="M39.375 36.5625C39.1264 36.5625 38.8879 36.6613 38.7121 36.8371C38.5363 37.0129 38.4375 37.2514 38.4375 37.5V39.375C38.4375 39.6236 38.5363 39.8621 38.7121 40.0379C38.8879 40.2137 39.1264 40.3125 39.375 40.3125C39.6236 40.3125 39.8621 40.2137 40.0379 40.0379C40.2137 39.8621 40.3125 39.6236 40.3125 39.375V37.5C40.3125 37.2514 40.2137 37.0129 40.0379 36.8371C39.8621 36.6613 39.6236 36.5625 39.375 36.5625Z" fill="url(#paint5_linear_614_8277)"/>
</g>
<rect x="0.5" y="0.5" width="59" height="59" rx="29.5" stroke="url(#paint6_linear_614_8277)"/>
<defs>
<linearGradient id="paint0_linear_614_8277" x1="24.375" y1="19.6875" x2="24.375" y2="29.0625" gradientUnits="userSpaceOnUse">
<stop stop-color="#0071D9"/>
<stop offset="1" stop-color="#5DAEFA"/>
</linearGradient>
<linearGradient id="paint1_linear_614_8277" x1="24.375" y1="30.9375" x2="24.375" y2="40.3125" gradientUnits="userSpaceOnUse">
<stop stop-color="#0071D9"/>
<stop offset="1" stop-color="#5DAEFA"/>
</linearGradient>
<linearGradient id="paint2_linear_614_8277" x1="35.625" y1="19.6875" x2="35.625" y2="29.0625" gradientUnits="userSpaceOnUse">
<stop stop-color="#0071D9"/>
<stop offset="1" stop-color="#5DAEFA"/>
</linearGradient>
<linearGradient id="paint3_linear_614_8277" x1="31.875" y1="30.9375" x2="31.875" y2="36.5625" gradientUnits="userSpaceOnUse">
<stop stop-color="#0977DC"/>
<stop offset="1" stop-color="#51A7F6"/>
</linearGradient>
<linearGradient id="paint4_linear_614_8277" x1="35.625" y1="30.9375" x2="35.625" y2="40.3125" gradientUnits="userSpaceOnUse">
<stop stop-color="#0071D9"/>
<stop offset="1" stop-color="#5DAEFA"/>
</linearGradient>
<linearGradient id="paint5_linear_614_8277" x1="39.375" y1="36.5625" x2="39.375" y2="40.3125" gradientUnits="userSpaceOnUse">
<stop stop-color="#0071D9"/>
<stop offset="1" stop-color="#5DAEFA"/>
</linearGradient>
<linearGradient id="paint6_linear_614_8277" x1="30" y1="0" x2="30" y2="60" gradientUnits="userSpaceOnUse">
<stop stop-color="#0B79DD"/>
<stop offset="1" stop-color="#55A9F7"/>
</linearGradient>
<clipPath id="clip0_614_8277">
<rect width="30" height="30" fill="white" transform="translate(15 15)"/>
</clipPath>
</defs>
</svg>
