<svg width="25" height="10" viewBox="0 0 25 10" fill="none" xmlns="http://www.w3.org/2000/svg">
<path d="M3.94922 9.2168C6.15234 9.2168 7.47656 7.51758 7.47656 4.70508C7.47656 3.55078 7.23633 2.57812 6.76758 1.85156C6.18164 0.861328 5.19727 0.328125 3.97852 0.328125C2.08594 0.328125 0.744141 1.57617 0.744141 3.33398C0.744141 4.95117 1.92188 6.13477 3.52734 6.13477C4.51172 6.13477 5.29688 5.68359 5.68359 4.88672H5.69531C5.69531 4.88672 5.72461 4.88672 5.73633 4.88672C5.75391 4.88672 5.78906 4.88672 5.78906 4.88672C5.82422 6.64453 5.12109 7.76367 3.96094 7.76367C3.29883 7.76367 2.77148 7.41211 2.60742 6.85547H0.855469C1.0957 8.26172 2.34375 9.2168 3.94922 9.2168ZM3.99023 4.76953C3.10547 4.76953 2.46094 4.14258 2.46094 3.27539C2.46094 2.43164 3.12891 1.77539 3.99609 1.77539C4.86328 1.77539 5.52539 2.4375 5.52539 3.29297C5.52539 4.14258 4.875 4.76953 3.99023 4.76953ZM9.96703 8.14453C10.5998 8.14453 11.0041 7.7168 11.0041 7.125C11.0041 6.5332 10.5998 6.11133 9.96703 6.11133C9.34008 6.11133 8.92992 6.5332 8.92992 7.125C8.92992 7.7168 9.34008 8.14453 9.96703 8.14453ZM9.96703 3.82031C10.5998 3.82031 11.0041 3.39258 11.0041 2.80078C11.0041 2.20898 10.5998 1.78711 9.96703 1.78711C9.34008 1.78711 8.92992 2.20898 8.92992 2.80078C8.92992 3.39258 9.34008 3.82031 9.96703 3.82031ZM16.6177 9H18.3052V7.52344H19.4126V6.05273H18.3052V0.544922H15.8266C14.3442 2.77734 13.2427 4.52344 12.4809 5.95898V7.52344H16.6177V9ZM14.0688 6.01172C15.0356 4.25977 15.7915 3.07617 16.5649 1.92188H16.6587V6.10547H14.0688V6.01172ZM22.5827 9H24.3523V0.544922H22.5886L20.403 2.05078V3.69727L22.4773 2.26758H22.5827V9Z" fill="white"/>
</svg>
