<svg width="30" height="30" viewBox="0 0 30 30" fill="none" xmlns="http://www.w3.org/2000/svg">
<g clip-path="url(#clip0_769_3543)">
<path d="M14.2032 18.5039C15.4611 17.6683 16.4165 16.45 16.9281 15.0293C17.4396 13.6085 17.4802 12.0608 17.0438 10.6151C16.6074 9.16951 15.7172 7.90278 14.5049 7.00242C13.2926 6.10206 11.8227 5.61591 10.3126 5.61591C8.80254 5.61591 7.33259 6.10206 6.1203 7.00242C4.90801 7.90278 4.01779 9.16951 3.58138 10.6151C3.14497 12.0608 3.18557 13.6085 3.69716 15.0293C4.20875 16.45 5.16416 17.6683 6.42198 18.5039C4.27624 19.293 2.42364 20.7202 1.11339 22.5937C1.01104 22.7327 0.950125 22.8978 0.937682 23.0699C0.925239 23.242 0.961778 23.4142 1.04307 23.5664C1.12341 23.7176 1.24316 23.8443 1.38964 23.933C1.53611 24.0217 1.70386 24.0692 1.8751 24.0703H18.7501C18.9214 24.0692 19.0891 24.0217 19.2356 23.933C19.3821 23.8443 19.5018 23.7176 19.5821 23.5664C19.6634 23.4142 19.7 23.242 19.6875 23.0699C19.6751 22.8978 19.6142 22.7327 19.5118 22.5937C18.2016 20.7202 16.349 19.293 14.2032 18.5039V18.5039Z" fill="#666666"/>
<path d="M29.0743 22.5938C27.7566 20.7225 25.9011 19.2962 23.754 18.5039C25.0158 17.6715 25.9752 16.454 26.4894 15.0326C27.0037 13.6111 27.0454 12.0616 26.6082 10.6145C26.1711 9.16749 25.2785 7.90022 24.0632 7.00123C22.848 6.10223 21.375 5.61956 19.8633 5.625C19.2182 5.62842 18.5762 5.71507 17.9532 5.88281C17.8069 5.92676 17.6731 6.00497 17.5631 6.11095C17.453 6.21693 17.3698 6.34762 17.3204 6.49219C17.2732 6.63557 17.2614 6.78822 17.2859 6.93715C17.3103 7.08609 17.3704 7.22692 17.461 7.34766C18.5209 8.77169 19.1297 10.4806 19.2091 12.254C19.2885 14.0274 18.8347 15.7839 17.9063 17.2969C17.7873 17.4979 17.7465 17.7358 17.7919 17.965C17.8373 18.1942 17.9657 18.3986 18.1524 18.5391C18.504 18.8125 18.8438 19.0938 19.1719 19.3828L19.2305 19.4414C20.4814 20.5989 21.4962 21.9878 22.2188 23.5313C22.293 23.6925 22.4119 23.8291 22.5615 23.9247C22.7111 24.0203 22.885 24.0708 23.0626 24.0703H28.3008C28.4721 24.0692 28.6398 24.0218 28.7863 23.933C28.9328 23.8443 29.0525 23.7176 29.1329 23.5664C29.2132 23.4145 29.2502 23.2434 29.2399 23.0719C29.2295 22.9003 29.1722 22.7349 29.0743 22.5938V22.5938Z" fill="#666666"/>
</g>
<defs>
<clipPath id="clip0_769_3543">
<rect width="30" height="30" fill="white"/>
</clipPath>
</defs>
</svg>
