<svg width="150" height="150" viewBox="0 0 150 150" fill="none" xmlns="http://www.w3.org/2000/svg">
<g filter="url(#filter0_d_862_2217)">
<circle cx="75" cy="65" r="60" fill="white"/>
<mask id="mask0_862_2217" style="mask-type:alpha" maskUnits="userSpaceOnUse" x="15" y="5" width="120" height="120">
<circle cx="75" cy="65" r="60" fill="#C4C4C4"/>
</mask>
<g mask="url(#mask0_862_2217)">
</g>
</g>
<path d="M93.5543 44.052C93.5543 49.2876 91.6767 53.8195 87.9727 57.5241C84.2688 61.2281 79.7362 63.1056 74.5006 63.1056H74.4915C69.2624 63.1038 64.7329 61.2262 61.0289 57.5241C57.3245 53.8195 55.4474 49.2876 55.4474 44.052C55.4474 38.8181 57.3245 34.2855 61.0289 30.5815C64.731 26.8788 69.2607 25.0019 74.4915 25H74.5006C79.7345 25 84.2669 26.8776 87.9727 30.5815C91.6767 34.2855 93.5543 38.8181 93.5543 44.052Z" fill="#FFBB85"/>
<path d="M108 90.502C108 94.6327 106.686 97.977 104.098 100.44C101.54 102.874 98.1573 104.107 94.0444 104.107H55.9539C51.8406 104.107 48.4579 102.874 45.9017 100.44C43.3124 97.975 42 94.6315 42 90.5022C42 88.9135 42.0525 87.3419 42.1576 85.8307C42.2642 84.2856 42.4805 82.6041 42.7991 80.8304C43.1202 79.042 43.533 77.3515 44.0274 75.8065C44.5404 74.207 45.2344 72.6295 46.0932 71.1182C46.9853 69.5496 48.033 68.1832 49.2074 67.0582C50.4388 65.8807 51.9438 64.935 53.6839 64.2457C55.4179 63.56 57.3401 63.2124 59.3971 63.2124C60.2039 63.2124 60.9854 63.5426 62.4918 64.524C63.5648 65.2228 64.6409 65.9166 65.7202 66.6055C66.756 67.2659 68.1586 67.8851 69.8925 68.4446C71.4165 68.9376 72.9633 69.2128 74.4915 69.2604C74.6599 69.2666 74.8283 69.2696 74.9967 69.2696C76.6938 69.2696 78.4102 68.9914 80.1025 68.4446C81.8366 67.8851 83.241 67.2657 84.2761 66.6055C85.355 65.9173 86.4307 65.224 87.5032 64.5259C89.0109 63.5426 89.7911 63.2126 90.6 63.2126C92.6549 63.2126 94.5773 63.5602 96.3124 64.2457C98.0524 64.9348 99.5576 65.8826 100.788 67.0582C101.964 68.1832 103.012 69.5496 103.903 71.1182C104.763 72.6308 105.458 74.207 105.969 75.8046C106.464 77.3515 106.878 79.042 107.199 80.8315C107.516 82.6072 107.733 84.2885 107.839 85.8294C107.946 87.3359 107.998 88.9075 108 90.502Z" fill="#6AA9FF"/>
<path d="M74.5007 63.1056H74.4916V25H74.5007C79.7346 25 84.267 26.8776 87.9728 30.5815C91.6768 34.2855 93.5544 38.8181 93.5544 44.052C93.5544 49.2876 91.6768 53.8195 87.9728 57.5241C84.2689 61.2281 79.7363 63.1056 74.5007 63.1056Z" fill="#F5A86C"/>
<path d="M108 90.502C108 94.6327 106.686 97.977 104.098 100.44C101.54 102.874 98.1574 104.107 94.0445 104.107H74.4916V69.2605C74.66 69.2666 74.8284 69.2695 74.9968 69.2695C76.6939 69.2695 78.4103 68.9914 80.1026 68.4444C81.8366 67.8851 83.2411 67.2659 84.2761 66.6055C85.3551 65.9173 86.4308 65.224 87.5033 64.5258C89.011 63.5426 89.7912 63.2125 90.6001 63.2125C92.655 63.2125 94.5773 63.5602 96.3124 64.2457C98.0525 64.9348 99.5577 65.8826 100.788 67.0582C101.964 68.1832 103.012 69.5496 103.903 71.1182C104.763 72.6308 105.458 74.207 105.969 75.8046C106.464 77.3515 106.878 79.042 107.199 80.8315C107.516 82.6072 107.733 84.2885 107.839 85.8294C107.946 87.3359 107.998 88.9075 108 90.502Z" fill="#2682FF"/>
<defs>
<filter id="filter0_d_862_2217" x="0" y="0" width="150" height="150" filterUnits="userSpaceOnUse" color-interpolation-filters="sRGB">
<feFlood flood-opacity="0" result="BackgroundImageFix"/>
<feColorMatrix in="SourceAlpha" type="matrix" values="0 0 0 0 0 0 0 0 0 0 0 0 0 0 0 0 0 0 127 0" result="hardAlpha"/>
<feOffset dy="10"/>
<feGaussianBlur stdDeviation="7.5"/>
<feComposite in2="hardAlpha" operator="out"/>
<feColorMatrix type="matrix" values="0 0 0 0 0 0 0 0 0 0 0 0 0 0 0 0 0 0 0.05 0"/>
<feBlend mode="normal" in2="BackgroundImageFix" result="effect1_dropShadow_862_2217"/>
<feBlend mode="normal" in="SourceGraphic" in2="effect1_dropShadow_862_2217" result="shape"/>
</filter>
</defs>
</svg>
