<svg width="425" height="200" viewBox="0 0 425 200" fill="none" xmlns="http://www.w3.org/2000/svg">
<path d="M0 0H425V182.41C425 182.41 375.725 200 212.5 200C49.2754 200 0 182.41 0 182.41V0Z" fill="url(#paint0_linear_862_2216)"/>
<path opacity="0.1" d="M6.10352e-05 93.6442C6.10352e-05 140.785 38.2152 179 85.3559 179C132.497 179 170.712 140.785 170.712 93.6442C170.712 46.5035 132.497 8.28839 85.3559 8.28839C38.2152 8.28839 6.10352e-05 46.5035 6.10352e-05 93.6442ZM153.641 93.6442C153.641 131.357 123.068 161.929 85.3559 161.929C47.6433 161.929 17.0712 131.357 17.0712 93.6442C17.0712 55.9316 47.6433 25.3596 85.3559 25.3596C123.068 25.3596 153.641 55.9316 153.641 93.6442Z" fill="url(#paint1_linear_862_2216)"/>
<path opacity="0.1" d="M91.7978 59.4213C91.7978 87.6613 114.691 110.554 142.931 110.554C171.171 110.554 194.064 87.6613 194.064 59.4213C194.064 31.1814 171.171 8.28839 142.931 8.28839C114.691 8.28839 91.7978 31.1814 91.7978 59.4213ZM183.837 59.4213C183.837 82.0133 165.523 100.328 142.931 100.328C120.339 100.328 102.024 82.0133 102.024 59.4213C102.024 36.8294 120.339 18.515 142.931 18.515C165.523 18.515 183.837 36.8294 183.837 59.4213Z" fill="url(#paint2_linear_862_2216)"/>
<path opacity="0.1" d="M215 36.8745C215 55.7753 199.678 71.0974 180.777 71.0974C161.876 71.0974 146.554 55.7753 146.554 36.8745C146.554 17.9738 161.876 2.65167 180.777 2.65167C199.678 2.65167 215 17.9738 215 36.8745ZM153.399 36.8745C153.399 51.9951 165.657 64.2528 180.777 64.2528C195.898 64.2528 208.155 51.9951 208.155 36.8745C208.155 21.7539 195.898 9.49624 180.777 9.49624C165.657 9.49624 153.399 21.7539 153.399 36.8745Z" fill="url(#paint3_linear_862_2216)"/>
<defs>
<linearGradient id="paint0_linear_862_2216" x1="-337.228" y1="-208.379" x2="-198.78" y2="126.878" gradientUnits="userSpaceOnUse">
<stop stop-color="#0071D9"/>
<stop offset="1" stop-color="#5DAEFA"/>
</linearGradient>
<linearGradient id="paint1_linear_862_2216" x1="149.373" y1="10.2283" x2="-33.9483" y2="193.549" gradientUnits="userSpaceOnUse">
<stop stop-color="white" stop-opacity="0"/>
<stop offset="1" stop-color="white" stop-opacity="0.7"/>
</linearGradient>
<linearGradient id="paint2_linear_862_2216" x1="181.28" y1="9.4505" x2="71.4608" y2="119.27" gradientUnits="userSpaceOnUse">
<stop stop-color="white" stop-opacity="0"/>
<stop offset="1" stop-color="white" stop-opacity="0.7"/>
</linearGradient>
<linearGradient id="paint3_linear_862_2216" x1="155.11" y1="3.42946" x2="228.611" y2="76.9308" gradientUnits="userSpaceOnUse">
<stop stop-color="white" stop-opacity="0"/>
<stop offset="1" stop-color="white" stop-opacity="0.7"/>
</linearGradient>
</defs>
</svg>
