<svg width="30" height="26" viewBox="0 0 30 26" fill="none" xmlns="http://www.w3.org/2000/svg">
<path d="M2 4.25V22.25C2 22.8467 2.23705 23.419 2.65901 23.841C3.08097 24.2629 3.65326 24.5 4.25 24.5H26.75C27.0484 24.5 27.3345 24.3815 27.5455 24.1705C27.7565 23.9595 27.875 23.6734 27.875 23.375V7.625C27.875 7.32663 27.7565 7.04048 27.5455 6.82951C27.3345 6.61853 27.0484 6.5 26.75 6.5H4.25C3.65326 6.5 3.08097 6.26295 2.65901 5.84099C2.23705 5.41903 2 4.84674 2 4.25ZM2 4.25C2 3.65326 2.23705 3.08097 2.65901 2.65901C3.08097 2.23705 3.65326 2 4.25 2H23.375" stroke="#AAAAAA" stroke-width="2.5" stroke-linecap="round" stroke-linejoin="round"/>
<path d="M22.6875 18.375C23.6195 18.375 24.375 17.6195 24.375 16.6875C24.375 15.7555 23.6195 15 22.6875 15C21.7555 15 21 15.7555 21 16.6875C21 17.6195 21.7555 18.375 22.6875 18.375Z" fill="#AAAAAA"/>
</svg>
